<svg width="68" height="64" viewBox="0 0 68 64" fill="none" xmlns="http://www.w3.org/2000/svg">
<g clip-path="url(#clip0_73_82)">
<path class="path"  d="M46.865 49.239C46.3884 49.239 45.9603 48.8998 45.8715 48.4151C45.7746 47.8659 46.138 47.3409 46.6792 47.2358C57.406 45.265 65.1926 35.871 65.1926 24.9019C65.1926 12.3819 55.0474 2.19635 42.584 2.19635C30.1206 2.19635 19.9754 12.3819 19.9754 24.9019C19.9754 30.3056 21.8978 35.5479 25.3953 39.6431C25.7588 40.0712 25.7022 40.7012 25.2822 41.0647C24.8541 41.4282 24.216 41.3717 23.8606 40.9516C20.0562 36.4848 17.9641 30.7822 17.9641 24.8938C17.9641 11.2673 29.0059 0.177002 42.5921 0.177002C56.1782 0.177002 67.22 11.2673 67.22 24.9019C67.22 36.8483 58.7388 47.0743 47.0508 49.2229C46.9862 49.231 46.9296 49.239 46.865 49.239Z" fill="#9FC899"/>
<path class="path"  d="M24.6279 63.94C11.0499 63.94 0 52.8497 0 39.2151C0 25.5805 11.0499 14.4902 24.6279 14.4902C38.206 14.4902 49.2559 25.5805 49.2559 39.2151C49.2559 52.8497 38.206 63.94 24.6279 63.94ZM24.6279 16.5096C12.1645 16.5096 2.01935 26.6952 2.01935 39.2151C2.01935 51.7351 12.1645 61.9206 24.6279 61.9206C37.0914 61.9206 47.2365 51.7351 47.2365 39.2151C47.2365 26.6952 37.0914 16.5096 24.6279 16.5096Z" fill="#46785C"/>
<path class="path"  d="M28.3677 46.3232C26.7845 46.3232 25.5002 45.0309 25.5002 43.4477C25.5002 41.8645 26.7845 40.5721 28.3677 40.5721C29.9509 40.5721 31.2352 41.8645 31.2352 43.4477C31.2352 45.0309 29.9509 46.3232 28.3677 46.3232ZM28.3677 42.5915C27.8992 42.5915 27.5196 42.9792 27.5196 43.4477C27.5196 43.9162 27.8992 44.3039 28.3677 44.3039C28.8362 44.3039 29.2158 43.9162 29.2158 43.4477C29.2158 42.9792 28.8362 42.5915 28.3677 42.5915Z" fill="#46785C"/>
</g>
<defs>
<clipPath id="clip0_73_82">
<rect width="67.22" height="63.7629" fill="white" transform="translate(0 0.177246)"/>
</clipPath>
</defs>
</svg>
