<svg width="76" height="65" viewBox="0 0 76 65" fill="none" xmlns="http://www.w3.org/2000/svg">
<g clip-path="url(#clip0_73_101)">
<path class="path"  d="M33.8028 41.7982C33.2634 41.7982 32.8335 41.3683 32.8257 40.8289C32.8257 40.2895 33.2556 39.8517 33.795 39.8439L69.5896 39.5391H69.5974C70.1368 39.5391 70.5668 39.969 70.5746 40.5084C70.5746 41.0478 70.1446 41.4855 69.6052 41.4933L33.8106 41.7982H33.8028Z" fill="#9FC899"/>
<path class="path"  d="M25.7748 30.2913C24.7742 30.2913 23.7814 29.9161 23.0153 29.1579C22.2805 28.423 21.874 27.4459 21.874 26.4062C21.874 25.3665 22.2805 24.3894 23.0153 23.6546C24.5397 22.1459 27.0099 22.1459 28.5264 23.6546C29.2612 24.3894 29.6677 25.3665 29.6677 26.4062C29.6677 27.4459 29.2612 28.423 28.5264 29.1579C27.7681 29.9161 26.7675 30.2913 25.767 30.2913H25.7748ZM25.7748 24.4832C25.2745 24.4832 24.7742 24.6708 24.3911 25.0539C24.0237 25.4213 23.8205 25.9059 23.8205 26.414C23.8205 26.9222 24.0237 27.4146 24.3911 27.7742C25.1494 28.5247 26.3923 28.5325 27.1506 27.7742C27.518 27.4068 27.7212 26.9222 27.7212 26.414C27.7212 25.9059 27.518 25.4135 27.1506 25.0539C26.7675 24.6786 26.2672 24.4832 25.7748 24.4832Z" fill="#9FC899"/>
<path class="path"  d="M56.2613 64.46H19.9508C19.599 64.46 19.2707 64.2724 19.0987 63.9597C18.9267 63.6548 18.9345 63.2796 19.1143 62.9747L21.3188 59.3242L47.5608 16.4863C47.8423 16.0251 48.4442 15.8844 48.9054 16.1658C49.3666 16.4472 49.5073 17.0491 49.2259 17.5104L22.9916 60.3404L21.6862 62.5057H55.6985L73.287 32.23L55.6985 1.95428H20.5136L2.93289 32.23L18.0434 58.2454C18.317 58.7144 18.1528 59.3085 17.6916 59.5821C17.2226 59.8479 16.6285 59.6916 16.3549 59.2303L0.955158 32.7225C0.775364 32.4176 0.775364 32.0424 0.955158 31.7375L19.1065 0.484662C19.2785 0.187611 19.6068 0 19.9508 0H56.2613C56.6131 0 56.9336 0.187611 57.1056 0.484662L75.2569 31.7375C75.4367 32.0424 75.4367 32.4176 75.2569 32.7225L57.1056 63.9753C56.9336 64.2724 56.6053 64.46 56.2613 64.46Z" fill="#46785C"/>
</g>
<defs>
<clipPath id="clip0_73_101">
<rect width="74.5675" height="64.46" fill="white" transform="translate(0.82251)"/>
</clipPath>
</defs>
</svg>
