<svg width="66" height="66" viewBox="0 0 66 66" fill="none" xmlns="http://www.w3.org/2000/svg">
<g opacity="0.6">
<path class="path"  d="M50.1353 41.7058C50.3704 41.7058 50.6076 41.6254 50.8015 41.4604C51.2346 41.0912 51.2882 40.4415 50.919 40.0063L50.4075 39.4061C46.1485 35.1409 39.8104 34.2024 34.5758 37.0074C34.0746 37.2756 33.8849 37.9026 34.155 38.4037C34.4232 38.9029 35.0481 39.1009 35.5514 38.8245C39.9754 36.4526 45.3379 37.2467 48.8937 40.8045L49.3474 41.3449C49.5516 41.5821 49.8424 41.7058 50.1353 41.7058Z" fill="white"/>
<path class="path"  d="M5.10486 36.2855C5.69679 35.5265 7.94492 33.2495 12.1174 35.7472C13.856 36.7928 15.1121 37.9045 16.2176 38.8842C16.8549 39.4473 17.4118 39.9423 17.9749 40.3465L20.52 41.12C20.1364 41.8006 19.9425 42.4895 19.8497 43.0711L17.2159 42.2708C17.1127 42.2378 17.0158 42.1925 16.9271 42.1306C16.2217 41.6418 15.5555 41.0519 14.8502 40.429C13.8107 39.5071 12.6309 38.4614 11.0552 37.5147C9.38661 36.5185 8.00679 36.4071 7.07042 37.1991C6.31348 37.8406 6.16086 38.7955 6.18561 38.9337L14.2603 47.0063L25.1606 50.9251C26.1259 51.2695 27.8006 51.5624 28.8195 51.5624H39.132C40.5283 51.5624 42.3742 52.2554 43.4261 53.1712L43.6179 53.3382C43.0445 53.7631 42.6362 54.3427 42.3742 54.9903L42.071 54.7263C41.3987 54.1405 40.025 53.6249 39.132 53.6249H28.8195C27.5655 53.6249 25.6515 53.2928 24.4655 52.868L13.3466 48.8708C13.2043 48.8193 13.0744 48.7368 12.9671 48.6295L4.72948 40.394C3.85292 39.5153 4.02205 37.6756 5.10486 36.2855Z" fill="white"/>
<path class="path"  d="M19.7546 45.375H35.0068C35.5761 45.375 36.0381 44.913 36.0381 44.3438C36.0381 43.7745 35.5761 43.3125 35.0068 43.3125H20.854C20.9385 42.7494 21.1221 42.0606 21.5346 41.4191C22.4833 39.9383 24.3334 39.1875 27.0291 39.1875C27.0311 39.1875 27.0353 39.1875 27.0373 39.1875H34.7346C35.3038 39.1875 35.7658 38.7255 35.7658 38.1562C35.7658 37.587 35.3038 37.125 34.7346 37.125H27.0373H27.0291C23.5847 37.125 21.151 38.1954 19.798 40.3054C18.7234 41.9781 18.7234 43.758 18.7234 44.3438C18.7234 44.913 19.1854 45.375 19.7546 45.375Z" fill="white"/>
<path class="path"  d="M46.9507 63.6797C47.3508 64.0798 48.0067 64.0819 48.4089 63.6797C48.811 63.2754 48.811 62.6216 48.4089 62.2215L42.4668 56.2671L54.1344 44.5995L60.0744 50.5519C60.4765 50.9541 61.1304 50.9541 61.5325 50.5519C61.9368 50.1517 61.9347 49.4959 61.5325 49.0937L54.9594 42.5122C54.5572 42.11 53.7734 42.0399 53.3712 42.4442L40.2455 55.5699C39.8433 55.9721 39.9712 56.6919 40.3754 57.0941L46.9507 63.6797Z" fill="white"/>
<path class="path"  d="M26.7568 35.0625C35.8545 35.0625 43.2568 27.6602 43.2568 18.5625C43.2568 9.46481 35.8545 2.0625 26.7568 2.0625C17.6591 2.0625 10.2568 9.46481 10.2568 18.5625C10.2568 27.6602 17.6591 35.0625 26.7568 35.0625ZM26.7568 4.125C34.716 4.125 41.1943 10.6033 41.1943 18.5625C41.1943 26.5217 34.716 33 26.7568 33C18.7976 33 12.3193 26.5217 12.3193 18.5625C12.3193 10.6033 18.7956 4.125 26.7568 4.125Z" fill="white"/>
<path class="path"  d="M37.5147 30.5702C37.8963 30.5702 38.2593 30.3578 38.4408 29.9948C38.6904 29.4833 38.4821 28.8646 37.9685 28.6129C30.9106 25.1479 22.5162 24.8592 15.2397 27.8251C14.7117 28.0396 14.4581 28.6418 14.6726 29.1677C14.8871 29.6957 15.4934 29.9474 16.0173 29.7329C22.7534 26.9918 30.5229 27.2579 37.0569 30.463C37.2074 30.5372 37.3621 30.5702 37.5147 30.5702Z" fill="white"/>
<path class="path"  d="M25.7255 11.3438C28.6811 11.3438 31.5913 10.8818 34.3736 9.97435C34.914 9.79697 35.211 9.21535 35.0336 8.67291C34.8562 8.13047 34.2787 7.8376 33.7322 8.01291C28.116 9.84854 21.8748 9.67941 16.3742 7.53235C15.8462 7.32197 15.246 7.58804 15.0397 8.1181C14.8335 8.64816 15.0933 9.24629 15.6255 9.45254C18.843 10.7065 22.2399 11.3438 25.7255 11.3438Z" fill="white"/>
<path class="path"  d="M26.7589 35.0234C26.959 35.0234 27.159 34.9657 27.3323 34.8481C32.7835 31.1954 36.0381 25.1069 36.0381 18.5626C36.0381 12.0121 32.7835 5.92359 27.3323 2.27709C26.9837 2.04403 26.532 2.04403 26.1835 2.27709C20.7281 5.92772 17.4735 12.0162 17.4735 18.5626C17.4735 25.109 20.7281 31.1975 26.1835 34.8481C26.3567 34.9657 26.5588 35.0234 26.7589 35.0234ZM26.7589 4.38909C31.2902 7.69115 33.9756 12.9361 33.9756 18.5626C33.9756 24.187 31.2902 29.434 26.7589 32.7361C22.2255 29.432 19.5381 24.185 19.5381 18.5626C19.5381 12.9361 22.2235 7.69115 26.7589 4.38909Z" fill="white"/>
<path class="path"  d="M12.1481 19.6782H38.0552C38.6244 19.6782 39.0864 19.2162 39.0864 18.647C39.0864 18.0777 38.6244 17.6157 38.0552 17.6157H12.1481C11.5789 17.6157 11.1169 18.0777 11.1169 18.647C11.1169 19.2162 11.5768 19.6782 12.1481 19.6782Z" fill="white"/>
</g>
</svg>
