<svg width="82" height="63" viewBox="0 0 82 63" fill="none" xmlns="http://www.w3.org/2000/svg">
<g clip-path="url(#clip0_73_112)">
<path class="path"  d="M61.406 30.7936C61.406 31.0665 61.3037 31.3393 61.0905 31.5439L50.9876 41.6469C50.5698 42.0646 49.8963 42.0646 49.4785 41.6469L43.3315 35.4998C42.9137 35.0821 42.9137 34.4085 43.3315 33.9908C43.7492 33.573 44.4228 33.573 44.8405 33.9908L50.2373 39.3875L58.8312 30.7936L30.9266 2.88905L3.022 30.7936L30.9351 58.6982L38.9663 50.667C39.3841 50.2493 40.0576 50.2493 40.4754 50.667C40.8931 51.0848 40.8931 51.7583 40.4754 52.1761L31.6854 60.9576C31.2676 61.3753 30.5941 61.3753 30.1763 60.9576L0.762688 31.5439C0.36198 31.1432 0.36198 30.4356 0.762688 30.0349L30.1763 0.621211C30.3724 0.42512 30.6452 0.305758 30.9266 0.305758C31.2079 0.305758 31.4808 0.416594 31.6769 0.621211L61.0905 30.0349C61.2951 30.2395 61.406 30.5123 61.406 30.7851L61.406 30.7936Z" fill="#9FC899"/>
<path class="path"  d="M81.4244 32.1663C81.4244 32.4477 81.3135 32.7205 81.1089 32.9166L51.7038 62.3302C51.286 62.748 50.6125 62.748 50.1947 62.3302L20.7811 32.9166C20.3633 32.4988 20.3633 31.8253 20.7811 31.4075L30.884 21.3046C31.0801 21.1085 31.353 20.9891 31.6343 20.9891C31.9157 20.9891 32.1885 21.1 32.3846 21.3046L38.3781 27.2982C38.7959 27.7159 38.7959 28.3894 38.3781 28.8072C37.9604 29.225 37.2868 29.225 36.8691 28.8072L31.6343 23.5724L23.0404 32.1749L50.945 60.0709L78.8496 32.1663L50.945 4.26173L42.9138 12.2929C42.496 12.7107 41.8225 12.7107 41.4047 12.2929C40.987 11.8752 40.987 11.2016 41.4047 10.7839L50.1947 1.9939C50.6125 1.57614 51.286 1.57614 51.7038 1.9939L81.1174 31.4075C81.3135 31.6036 81.4329 31.8765 81.4329 32.1578L81.4244 32.1663Z" fill="#46785C"/>
<path class="path"  d="M43.3996 31.2883C43.3996 32.8911 42.1378 34.187 40.5776 34.187C39.0174 34.187 37.7556 32.8826 37.7556 31.2883C37.7556 29.694 39.0174 28.3895 40.5776 28.3895C42.1378 28.3895 43.3996 29.694 43.3996 31.2883ZM39.887 31.2883C39.887 31.7146 40.194 32.0556 40.5776 32.0556C40.9613 32.0556 41.2682 31.706 41.2682 31.2883C41.2682 30.8705 40.9613 30.521 40.5776 30.521C40.194 30.521 39.887 30.8705 39.887 31.2883Z" fill="#46785C"/>
</g>
<defs>
<clipPath id="clip0_73_112">
<rect width="62.3314" height="80.96" fill="white" transform="translate(0.464355 62.6455) rotate(-90)"/>
</clipPath>
</defs>
</svg>
