<svg width="58" height="55" viewBox="0 0 58 55" fill="none" xmlns="http://www.w3.org/2000/svg">
<g clip-path="url(#clip0_73_106)">
<path class="path"  d="M27.8631 54.47C27.3515 54.47 26.9363 54.0547 26.9363 53.5432V10.2508C26.9363 9.73918 27.3515 9.32397 27.8631 9.32397C28.3747 9.32397 28.7899 9.73918 28.7899 10.2508V53.5432C28.7899 54.0547 28.3747 54.47 27.8631 54.47Z" fill="#9FC899"/>
<path class="path"  d="M27.8631 37.1872C27.7667 37.1872 27.6704 37.1724 27.574 37.1427L0.637634 28.3048C0.259502 28.1788 0 27.8229 0 27.4225V9.76153C0 9.36115 0.259502 9.00526 0.637634 8.87922L27.574 0.0413123C27.7593 -0.0180025 27.9669 -0.0180025 28.1523 0.0413123L55.0886 8.87922C55.4668 9.00526 55.7263 9.36115 55.7263 9.76153V15.1295C55.7263 15.6411 55.3111 16.0563 54.7995 16.0563C54.2879 16.0563 53.8727 15.6411 53.8727 15.1295V10.4288L27.8631 1.90231L1.85359 10.4288V26.7552L27.8631 35.2817L54.5103 26.5402C54.9996 26.3771 55.5187 26.644 55.6818 27.1333C55.8449 27.6227 55.578 28.1417 55.0886 28.3048L28.1523 37.1353C28.0559 37.165 27.9595 37.1798 27.8631 37.1798V37.1872Z" fill="#46785C"/>
<path class="path"  d="M27.8632 54.4699C27.7668 54.4699 27.6704 54.4551 27.574 54.4255L0.637706 45.5876C0.244746 45.4615 -0.0221711 45.0834 7.19847e-05 44.6608C0.022315 44.2456 0.311475 43.8897 0.719264 43.8007L13.3904 40.9313C13.8946 40.8127 14.3839 41.1315 14.4951 41.6283C14.6063 42.1251 14.2949 42.6218 13.7982 42.733L4.39678 44.8609L27.8558 52.557L53.8653 44.0305V27.4224C53.8653 26.9108 54.2805 26.4956 54.7921 26.4956C55.3037 26.4956 55.7189 26.9108 55.7189 27.4224V44.7052C55.7189 45.1056 55.4594 45.4615 55.0813 45.5876L28.1449 54.4255C28.0486 54.4551 27.9522 54.4699 27.8558 54.4699H27.8632Z" fill="#46785C"/>
<path class="path"  d="M54.7996 22.7664C53.3908 22.7664 52.249 21.6245 52.249 20.2158C52.249 18.8071 53.3908 17.6653 54.7996 17.6653C56.2083 17.6653 57.3501 18.8071 57.3501 20.2158C57.3501 21.6245 56.2083 22.7664 54.7996 22.7664ZM54.7996 19.5189C54.414 19.5189 54.1026 19.8303 54.1026 20.2158C54.1026 20.6014 54.414 20.9128 54.7996 20.9128C55.1851 20.9128 55.4965 20.6014 55.4965 20.2158C55.4965 19.8303 55.1851 19.5189 54.7996 19.5189Z" fill="#9FC899"/>
</g>
<defs>
<clipPath id="clip0_73_106">
<rect width="57.35" height="54.4732" fill="white" transform="translate(0 -0.00317383)"/>
</clipPath>
</defs>
</svg>
