<svg width="51" height="50" viewBox="0 0 51 50" fill="none" xmlns="http://www.w3.org/2000/svg">
<g clip-path="url(#clip0_23_393)">
<path class="path"  d="M43.8333 27.0833C43.4559 26.4286 42.9076 25.8889 42.247 25.5219C41.5865 25.1549 40.8386 24.9745 40.0833 24.9999H35.9167C34.8116 24.9999 33.7518 25.4389 32.9704 26.2203C32.189 27.0017 31.75 28.0615 31.75 29.1666C31.75 30.2717 32.189 31.3315 32.9704 32.1129C33.7518 32.8943 34.8116 33.3333 35.9167 33.3333H40.0833C41.1884 33.3333 42.2482 33.7722 43.0296 34.5536C43.811 35.335 44.25 36.3948 44.25 37.4999C44.25 38.605 43.811 39.6648 43.0296 40.4462C42.2482 41.2276 41.1884 41.6666 40.0833 41.6666H35.9167C35.1614 41.692 34.4135 41.5116 33.753 41.1446C33.0924 40.7776 32.5441 40.2379 32.1667 39.5833" stroke="#46785C" stroke-width="2.08333" stroke-linecap="round" stroke-linejoin="round"/>
<path class="path"  d="M38 22.9167V43.7501" stroke="#46785C" stroke-width="2.08333" stroke-linecap="round" stroke-linejoin="round"/>
<path class="path"  d="M6.75 10.4167C6.75 11.5217 7.18899 12.5815 7.97039 13.3629C8.75179 14.1443 9.8116 14.5833 10.9167 14.5833C12.0217 14.5833 13.0815 14.1443 13.8629 13.3629C14.6443 12.5815 15.0833 11.5217 15.0833 10.4167C15.0833 9.3116 14.6443 8.25179 13.8629 7.47039C13.0815 6.68899 12.0217 6.25 10.9167 6.25C9.8116 6.25 8.75179 6.68899 7.97039 7.47039C7.18899 8.25179 6.75 9.3116 6.75 10.4167Z" stroke="#46785C" stroke-width="2.08333" stroke-linecap="round" stroke-linejoin="round"/>
<path class="path"  d="M31.75 10.4167C31.75 11.5217 32.189 12.5815 32.9704 13.3629C33.7518 14.1443 34.8116 14.5833 35.9167 14.5833C37.0217 14.5833 38.0815 14.1443 38.8629 13.3629C39.6443 12.5815 40.0833 11.5217 40.0833 10.4167C40.0833 9.3116 39.6443 8.25179 38.8629 7.47039C38.0815 6.68899 37.0217 6.25 35.9167 6.25C34.8116 6.25 33.7518 6.68899 32.9704 7.47039C32.189 8.25179 31.75 9.3116 31.75 10.4167Z" stroke="#46785C" stroke-width="2.08333" stroke-linecap="round" stroke-linejoin="round"/>
<path class="path"  d="M15.0833 10.4167H31.75" stroke="#46785C" stroke-width="2.08333" stroke-linecap="round" stroke-linejoin="round"/>
<path class="path"  d="M15.0833 10.4167V27.0834C15.0833 28.741 15.7418 30.3307 16.9139 31.5028C18.086 32.6749 19.6757 33.3334 21.3333 33.3334H23.4167" stroke="#46785C" stroke-width="2.08333" stroke-linecap="round" stroke-linejoin="round"/>
</g>
<defs>
<clipPath id="clip0_23_393">
<rect width="50" height="50" fill="white" transform="translate(0.5)"/>
</clipPath>
</defs>
</svg>
