<svg width="63" height="66" viewBox="0 0 63 66" fill="none" xmlns="http://www.w3.org/2000/svg">
<g clip-path="url(#clip0_73_90)">
<path d="M1.2538 49.3184C0.905448 49.3184 0.564841 49.1249 0.394538 48.7998C0.146824 48.3276 0.33261 47.7393 0.804814 47.4916L50.7501 21.5126C51.2223 21.2649 51.8106 21.4507 52.0583 21.9229C52.306 22.3951 52.1203 22.9834 51.6481 23.2311L1.70278 49.2101C1.56344 49.2875 1.40862 49.3184 1.2538 49.3184Z" fill="#9FC899"/>
<path d="M31.6142 65.1102C31.4594 65.1102 31.3045 65.0715 31.1652 65.0019L0.804783 49.2101C0.4874 49.0398 0.286133 48.7147 0.286133 48.3508V16.7596C0.286133 16.3958 0.4874 16.0707 0.804783 15.9004L31.1729 0.108601C31.4516 -0.038479 31.7845 -0.038479 32.0632 0.108601L62.4236 15.9004C62.741 16.0707 62.9422 16.3958 62.9422 16.7596V48.3508C62.9422 48.7147 62.741 49.0398 62.4236 49.2101L32.0632 65.0019C31.9238 65.0715 31.769 65.1102 31.6142 65.1102ZM2.2214 47.7625L31.6142 63.0511L61.007 47.7625V17.3479L31.6142 2.05935L2.2214 17.3479V47.7625Z" fill="#46785C"/>
<path d="M61.9824 49.3185C61.8353 49.3185 61.6805 49.2875 61.5334 49.2101L31.6762 33.7125C31.2039 33.4648 31.0182 32.8842 31.2659 32.4043C31.5136 31.9321 32.0942 31.7463 32.5741 31.994L62.4314 47.4916C62.9036 47.7393 63.0893 48.3199 62.8416 48.7999C62.6713 49.1327 62.3307 49.3185 61.9824 49.3185Z" fill="#46785C"/>
<path d="M52.7705 53.6533C52.6234 53.6533 52.4686 53.6224 52.3215 53.545L22.4642 38.0474C21.992 37.7997 21.8062 37.2191 22.054 36.7391C22.3017 36.2669 22.8823 36.0812 23.3622 36.3289L53.2194 51.8264C53.6916 52.0742 53.8774 52.6547 53.6297 53.1347C53.4594 53.4676 53.1188 53.6533 52.7705 53.6533Z" fill="#46785C"/>
<path d="M54.2799 23.0606C52.7859 23.0606 51.5706 21.9226 51.5706 20.5292C51.5706 19.1359 52.7859 17.9979 54.2799 17.9979C55.7739 17.9979 56.9893 19.1359 56.9893 20.5292C56.9893 21.9226 55.7739 23.0606 54.2799 23.0606ZM54.2799 19.9254C53.8619 19.9254 53.5058 20.1964 53.5058 20.5215C53.5058 20.8466 53.8619 21.1176 54.2799 21.1176C54.6979 21.1176 55.054 20.8466 55.054 20.5215C55.054 20.1964 54.6979 19.9254 54.2799 19.9254Z" fill="#9FC899"/>
</g>
<defs>
<clipPath id="clip0_73_90">
<rect width="62.6638" height="65.11" fill="white" transform="translate(0.286133)"/>
</clipPath>
</defs>
</svg>
