<svg width="62" height="64" viewBox="0 0 62 64" fill="none" xmlns="http://www.w3.org/2000/svg">
<g clip-path="url(#clip0_73_78)">
<path d="M61.0413 49.2143H14.1443C13.6096 49.2143 13.1755 48.7803 13.1755 48.2455V32.1017C13.1755 31.5669 13.6096 31.1329 14.1443 31.1329H26.0953C26.63 31.1329 27.064 31.5669 27.064 32.1017C27.064 32.6365 26.63 33.0705 26.0953 33.0705H15.1131V47.2768H60.0802V2.21662H15.1131V15.2913C15.1131 15.8261 14.6791 16.2601 14.1443 16.2601C13.6096 16.2601 13.1755 15.8261 13.1755 15.2913V1.24784C13.1755 0.713068 13.6096 0.279053 14.1443 0.279053H61.049C61.5838 0.279053 62.0178 0.713068 62.0178 1.24784V48.2455C62.0178 48.7803 61.5838 49.2143 61.049 49.2143H61.0413Z" fill="#9FC899"/>
<path d="M47.8657 63.25H0.968785C0.434016 63.25 0 62.816 0 62.2812V15.2913C0 14.7565 0.434016 14.3225 0.968785 14.3225H47.8657C48.4005 14.3225 48.8345 14.7565 48.8345 15.2913V62.2812C48.8345 62.816 48.4005 63.25 47.8657 63.25ZM1.93757 61.3125H46.897V16.2601H1.93757V61.3125Z" fill="#46785C"/>
<path d="M31.7451 34.8839C30.2106 34.8839 28.9628 33.6361 28.9628 32.0938C28.9628 30.5515 30.2106 29.3037 31.7451 29.3037C33.2797 29.3037 34.5275 30.5515 34.5275 32.0938C34.5275 33.6361 33.2797 34.8839 31.7451 34.8839ZM31.7451 31.2413C31.2801 31.2413 30.9003 31.621 30.9003 32.0938C30.9003 32.5666 31.2801 32.9463 31.7451 32.9463C32.2101 32.9463 32.5899 32.5666 32.5899 32.0938C32.5899 31.621 32.2101 31.2413 31.7451 31.2413Z" fill="#46785C"/>
</g>
<defs>
<clipPath id="clip0_73_78">
<rect width="62.01" height="62.971" fill="white" transform="translate(0 0.278809)"/>
</clipPath>
</defs>
</svg>
