<svg width="69" height="69" viewBox="0 0 69 69" fill="none" xmlns="http://www.w3.org/2000/svg">
<g clip-path="url(#clip0_73_122)">
<path d="M34.2108 68.4351C25.0708 68.4351 16.4787 64.8737 10.02 58.4151C3.56138 51.9482 0 43.356 0 34.216C0 25.0759 3.56138 16.4921 10.02 10.0251C16.487 3.56651 25.0791 0.00512695 34.2108 0.00512695C43.3426 0.00512695 51.943 3.56651 58.4017 10.0251C64.8603 16.4838 68.4217 25.0759 68.4217 34.216C68.4217 43.356 64.8603 51.9482 58.4017 58.4068C51.943 64.8654 43.3509 68.4268 34.2108 68.4268V68.4351ZM34.2108 2.09713C25.984 2.09713 17.7488 5.22683 11.4894 11.4945C-1.0377 24.0216 -1.0377 44.4103 11.4894 56.9457C24.0165 69.4728 44.4052 69.4728 56.9406 56.9457C69.4677 44.4186 69.4677 24.0299 56.9406 11.4945C50.6729 5.22683 42.446 2.09713 34.2192 2.09713H34.2108Z" fill="#9FC899"/>
<path d="M35.7715 68.46C29.4208 68.46 23.3855 66.1107 18.6868 61.7773C13.7308 57.2031 10.8501 50.9769 10.5762 44.2443C10.3022 37.5034 12.6682 31.0614 17.2424 26.1053C17.4997 25.8231 17.7654 25.5491 18.0393 25.2835C18.4461 24.8767 19.1019 24.885 19.5087 25.2835C19.9155 25.6903 19.9072 26.3461 19.5087 26.7529C19.2597 27.0019 19.0189 27.251 18.7782 27.5083C14.5859 32.0576 12.4108 37.9683 12.6599 44.153C12.9089 50.3377 15.5571 56.0492 20.1064 60.2498C24.6557 64.4421 30.5747 66.6171 36.7511 66.368C42.9358 66.119 48.6473 63.4708 52.8479 58.9215C57.0402 54.3722 59.2152 48.4615 58.9662 42.2768C58.7171 36.0921 56.0689 30.3807 51.5196 26.1801C47.7092 22.6685 42.9773 20.5765 37.8303 20.1282C37.2575 20.0784 36.8341 19.5803 36.8839 19.0075C36.9337 18.4347 37.4401 18.0279 38.0046 18.0611C43.6165 18.5426 48.7718 20.8255 52.9226 24.6526C57.8787 29.2267 60.7593 35.4529 61.0333 42.1855C61.3072 48.9264 58.9413 55.3684 54.3671 60.3245C49.7929 65.2805 43.5667 68.1612 36.8341 68.4351C36.4855 68.4517 36.1368 68.46 35.7881 68.46H35.7715Z" fill="#46785C"/>
<path d="M28.4828 24.3122C27.4368 24.3122 26.4489 23.9054 25.7018 23.1582C24.166 21.6225 24.166 19.132 25.7018 17.5962C26.4406 16.8573 27.4285 16.4423 28.4828 16.4423C29.5371 16.4423 30.5167 16.849 31.2638 17.5962C32.7996 19.132 32.7996 21.6225 31.2638 23.1582C30.525 23.8971 29.5371 24.3122 28.4828 24.3122ZM28.4828 18.526C27.9847 18.526 27.5198 18.7169 27.1712 19.0656C26.4489 19.7878 26.4489 20.9666 27.1712 21.6889C27.8685 22.3862 29.0971 22.3862 29.7945 21.6889C30.5167 20.9666 30.5167 19.7878 29.7945 19.0656C29.4458 18.7169 28.9809 18.526 28.4828 18.526Z" fill="#46785C"/>
</g>
<defs>
<clipPath id="clip0_73_122">
<rect width="68.43" height="68.4549" fill="white" transform="translate(0 0.00512695)"/>
</clipPath>
</defs>
</svg>
