<svg width="620" height="693" viewBox="0 0 620 693" fill="none" xmlns="http://www.w3.org/2000/svg">
<mask id="mask0_56_365" style="mask-type:alpha" maskUnits="userSpaceOnUse" x="0" y="0" width="620" height="693">
<rect width="620" height="693" fill="#D9D9D9"/>
</mask>
<g mask="url(#mask0_56_365)">
<circle opacity="0.2" cx="329.58" cy="376.086" r="271.112" transform="rotate(-160.755 329.58 376.086)" fill="#1A4F31" stroke="url(#paint0_linear_56_365)" stroke-width="2.10458"/>
<circle opacity="0.2" cx="675.727" cy="67.2244" r="675.717" transform="rotate(-73.7105 675.727 67.2244)" fill="#1A4F31" stroke="url(#paint1_linear_56_365)" stroke-width="2.10458"/>
<circle opacity="0.3" cx="677.961" cy="60.7163" r="487.16" transform="rotate(-105 677.961 60.7163)" stroke="url(#paint2_linear_56_365)" stroke-width="2.10458"/>
<path opacity="0.3" d="M329.688 408C375.023 453.335 428.843 489.296 488.076 513.831C547.308 538.366 610.794 550.994 674.907 550.994C739.02 550.994 802.505 538.366 861.738 513.831C920.97 489.296 974.79 453.335 1020.13 408C1065.46 362.665 1101.42 308.845 1125.96 249.612C1150.49 190.379 1163.12 126.894 1163.12 62.7812C1163.12 -1.33179 1150.49 -64.817 1125.96 -124.05C1101.42 -183.282 1065.46 -237.103 1020.13 -282.437L674.907 62.7812L329.688 408Z" fill="url(#paint3_linear_56_365)"/>
<line opacity="0.3" x1="1605.75" y1="-862.259" x2="-232.253" y2="988.639" stroke="url(#paint4_linear_56_365)" stroke-width="2.10458"/>
<path d="M299.841 327.007C294.074 329.278 288.264 331.148 282.507 332.598C284.157 345.82 286.184 358.642 288.264 369.675C296.583 367.495 305.064 364.614 313.54 361.012C308.67 349.035 304.053 337.563 299.841 327.007Z" fill="#46785C"/>
<path d="M452.074 306.864C451.345 307.775 449.327 307.584 449.012 310.551C451.335 313.051 453.582 315.636 455.719 318.326C456.21 312.292 455.876 306.439 454.703 300.844C452.814 298.516 450.877 296.303 448.902 294.195C449.923 296.251 453.501 305.085 452.074 306.864Z" fill="#46785C"/>
<path d="M388.476 525.338C396.881 521.756 404.895 517.43 412.45 512.459C412.603 509.082 412.55 505.567 412.293 501.913C403.325 507.408 393.785 512.326 383.716 516.623C385.371 519.762 386.959 522.677 388.476 525.338Z" fill="#46785C"/>
<path d="M424.738 267.101C412.374 257.056 398.417 248.923 383.311 243.127C388.352 247.549 392.145 252.93 394.391 259.274C424.89 268.175 430.862 280.877 424.738 267.101Z" fill="#46785C"/>
<path d="M364.913 346.721C365.776 352.116 363.095 353.084 361.731 352.66C359.751 352.045 359.809 349.049 358.206 347.737C357.366 347.05 356.723 347.022 350.884 345.844C346.787 345.018 346.753 348.448 347.33 350.051C348.084 352.154 351.18 355.574 348.709 357.931C354.07 365.758 359.122 373.428 363.854 380.931C371.958 375.684 379.509 369.999 386.406 363.969C382.676 356.199 373.804 359.657 364.922 346.716L364.913 346.721Z" fill="#46785C"/>
<path d="M342.971 477.719C346.878 483.491 354.648 487.049 361.483 485.699C362.738 485.451 364.054 485.07 365.266 485.48C367.336 486.176 368.047 488.914 367.379 490.994C366.096 494.963 361.407 497.061 360.214 502.762C363.944 501.436 367.665 500.019 371.371 498.502C373.365 497.686 373.737 500.295 365.457 482.399C364.417 482.623 364.059 482.499 356.313 481.468C350.054 480.638 351.7 477.819 351.142 474.208C340.467 478.206 340.152 477.633 342.976 477.719H342.971Z" fill="#46785C"/>
<path d="M288.526 371.058C290.821 383.14 293.726 396.248 297.394 409.824C307.988 407.191 318.677 403.637 329.248 399.182C324.034 386.675 318.925 374.249 314.065 362.3C305.579 365.902 297.017 368.835 288.531 371.063L288.526 371.058Z" fill="#46785C"/>
<path d="M429.493 277.695C434.025 301.106 423.512 287.488 438.527 300.439C434.521 287.25 438.714 285.361 429.493 277.695Z" fill="#46785C"/>
<path d="M413.867 511.519C422.634 505.605 430.748 498.798 438.094 491.237C438.437 488.294 438.68 485.37 438.838 482.47C407.714 509.692 414.511 492.144 413.867 511.519Z" fill="#46785C"/>
<path d="M412.174 500.382C411.659 494.305 410.6 487.856 408.983 481.049C398.294 487.612 386.793 493.513 374.663 498.631C377.601 504.698 380.416 510.317 383.068 515.383C393.357 510.995 403.106 505.958 412.174 500.377V500.382Z" fill="#46785C"/>
<path d="M454.164 328.424C454.765 325.743 455.218 323.086 455.514 320.462C453.53 317.925 451.484 315.497 449.385 313.179C450.258 315.588 453.802 320.067 454.164 328.424Z" fill="#46785C"/>
<path d="M429.513 465.084C425.955 465.561 422.716 467.66 419.124 467.808C414.697 467.989 410.381 465.165 406.078 465.737C407.547 470.245 408.821 474.624 409.875 478.869C416.796 474.543 423.35 469.935 429.513 465.084Z" fill="#46785C"/>
<path d="M408.639 479.637C407.556 475.249 406.249 470.713 404.718 466.038C402.056 466.873 399.9 468.991 397.224 469.845C392.645 471.309 380.348 467.641 369.358 479.446C368.552 480.315 367.731 481.264 366.739 481.87C369.243 487.284 371.69 492.478 374.056 497.386C386.296 492.23 397.882 486.272 408.639 479.642V479.637Z" fill="#46785C"/>
<path d="M369.86 461.549C369.311 461.201 366.721 460.967 365.571 461.816C366.587 462.069 366.664 461.888 365.066 462.455C364.317 462.722 364.398 463.252 365.128 463.357C367.761 463.729 371.682 462.694 369.86 461.549Z" fill="#46785C"/>
<path d="M258.547 276.664C263.107 273.884 267.076 271.661 270.133 270.034C266.685 271.141 262.163 272.734 256.982 274.89C257.44 275.887 258.118 276.011 258.552 276.664H258.547Z" fill="#46785C"/>
<path d="M346.959 437.103C355.015 439.626 353.804 446.357 356.141 447.535C358.011 448.48 362.204 445.818 357.83 440.251C356.151 438.114 354.472 436.297 355.173 433.373C352.688 434.551 350.713 435.481 346.964 437.103H346.959Z" fill="#46785C"/>
<path d="M257.636 282.298C269.547 271.609 279.058 265.675 258.552 278.286C258.304 278.816 256.215 281.311 257.636 282.298Z" fill="#46785C"/>
<path d="M253.438 279.766C252.604 278.788 251.449 278.182 250.19 277.891C246.951 279.403 243.56 281.101 240.073 283.019C240.011 285.552 244.399 282.37 247.748 283.653C253.849 279.475 253.577 279.928 253.438 279.766Z" fill="#46785C"/>
<path d="M363.686 456.102C366.849 456.36 372.229 459.832 375.01 456.45C374.199 454.929 372.086 454.91 370.364 454.757C368.084 454.552 366.162 453.154 363.968 452.959C357.39 452.377 357.29 451.084 353.56 452.582L354.781 455.358C356.464 455.43 358.167 456.045 359.875 456.145C361.144 456.217 362.417 456.002 363.686 456.107V456.102Z" fill="#46785C"/>
<path d="M264.552 270.469C255.919 272.501 256.725 272.381 256.706 273.502C259.544 272.329 262.182 271.318 264.552 270.469Z" fill="#46785C"/>
<path d="M247.243 277.753C244.834 278.058 242.602 279.25 240.469 280.4C240.341 280.467 240.345 280.348 240.207 281.364C242.606 280.061 244.958 278.859 247.248 277.753H247.243Z" fill="#46785C"/>
<path d="M379.805 389.122L379.757 392.475C382.529 390.501 389.889 384.462 387.151 382.244C385.801 381.151 383.936 382.83 382.199 382.902C378.441 383.059 376.676 375.885 373.203 377.331C374.577 373.147 382.867 375.661 384.713 367.242C378.474 372.494 371.744 377.474 364.579 382.11C372.535 394.784 372.063 394.617 372.182 394.46C374.143 391.908 376.58 389.108 379.8 389.127L379.805 389.122Z" fill="#46785C"/>
<path d="M390.266 376.009C394.983 374.211 394.296 371.568 393.271 370.81C391.611 369.579 389.884 371.606 387.003 365.281C386.306 365.887 385.6 366.488 384.895 367.085C388.152 376.252 387.804 376.944 390.266 376.004V376.009Z" fill="#46785C"/>
<path d="M258.686 256.574C251.192 253.845 249.203 255.863 246.479 257.628C246.88 259.464 247.481 261.392 248.755 262.775C252.48 262.737 248.092 263.228 258.691 256.574H258.686Z" fill="#46785C"/>
<path d="M428.239 272.596C428.826 272.295 429.341 271.852 429.694 271.303C425.83 267.883 426.889 268.098 428.239 272.596Z" fill="#46785C"/>
<path d="M445.812 289.034C447.558 290.737 449.265 292.501 450.925 294.319C445.092 286.52 439.787 280.572 445.812 289.034Z" fill="#46785C"/>
<path d="M259.716 268.427C258.896 269.181 258.08 269.944 257.541 270.827C268.588 267.798 277.336 266.93 259.716 268.427Z" fill="#46785C"/>
<path d="M262.477 265.184C262.205 265.799 261.762 266.381 261.309 266.882C270.224 266.243 275.709 267.006 262.477 265.184Z" fill="#46785C"/>
<path d="M261.132 260.404C262.473 260.853 262.997 262.341 262.845 263.796C267.591 264.459 271.707 265.313 274.321 265.909C271.33 263.553 265.864 259.574 260.288 257.208C257.397 258.959 254.75 260.848 252.394 262.828C253.634 262.875 254.864 262.952 256.09 263.047C257.741 261.587 259.196 259.756 261.137 260.404H261.132Z" fill="#46785C"/>
<path d="M331.061 399.921C336.088 411.975 341.211 424.081 346.291 435.877C349.816 434.351 352.478 433.139 355.96 431.455C358.917 426.418 368.209 423.351 366.654 417.045C366.039 414.555 362.328 411.474 368.734 404.324C372.764 399.83 370.67 399.244 370.909 396.964C371.104 395.108 372.927 398.013 363.415 382.859C353.36 389.275 342.518 395.013 331.061 399.921Z" fill="#46785C"/>
<path d="M253.996 264.421C254.431 264.258 251.392 264.215 250.815 264.201C250.7 264.306 252.446 264.998 253.996 264.421Z" fill="#46785C"/>
<path d="M381.785 515.927C371.806 496.842 374.248 498.822 371.896 499.785C367.956 501.397 364.002 502.9 360.038 504.298C360.019 505.366 360.229 506.42 360.754 507.408C362.433 510.57 369.75 514.834 372.989 516.408C373.714 517.572 375.24 517.811 376.771 517.968C379.81 516.776 380.64 516.408 381.789 515.927H381.785Z" fill="#46785C"/>
<path d="M269.675 245.293C263.808 247.787 258.084 250.664 252.556 253.893C254.993 253.941 257.607 254.628 260.192 255.658C273.491 247.778 270.138 253.969 269.675 245.293Z" fill="#46785C"/>
<path d="M281.749 247.101C283.39 244.368 285.531 241.653 288.322 239.159C280.838 240.919 276.616 242.412 271.045 244.716C271.088 246.323 271.36 248.174 271.765 250.111C275.123 248.837 278.472 247.835 281.749 247.101Z" fill="#46785C"/>
<path d="M301.153 247.287C291.317 254.037 283.05 261.406 278.991 265.203C283.547 262.212 294.537 255.344 308.284 249.095C306.156 248.251 303.762 247.645 301.153 247.282V247.287Z" fill="#46785C"/>
<path d="M282.631 248.312C279.006 254.57 278.061 260.824 277.842 264.349C279.85 260.662 284.081 253.712 290.501 247.101C287.959 247.325 285.321 247.725 282.631 248.307V248.312Z" fill="#46785C"/>
<path d="M272.07 251.475C273.315 256.707 275.371 262.231 276.425 264.907C276.578 261.558 277.37 255.224 280.823 248.727C277.947 249.433 275.013 250.344 272.075 251.47L272.07 251.475Z" fill="#46785C"/>
<path d="M261.776 256.331C279.43 264.32 275.457 271.542 270.763 251.985C267.581 253.273 264.572 254.733 261.776 256.331Z" fill="#46785C"/>
<path d="M283.628 246.704C286.485 246.146 289.28 245.788 291.966 245.636C295.443 242.263 299.507 239.053 304.153 236.492C299.984 236.902 295.682 237.565 291.298 238.49C288.007 240.999 285.517 243.828 283.628 246.704Z" fill="#46785C"/>
<path d="M320.9 234.827C322.56 234.183 324.215 233.621 325.866 233.144C321.945 233.225 318.057 233.454 314.217 233.826C309.061 235.271 311.971 234.169 320.9 234.832V234.827Z" fill="#46785C"/>
<path d="M270.859 291.891C272.275 289.601 275.452 288.132 275.366 285.442C275.314 283.686 273.325 281.535 276.673 278.645C276.559 275.573 276.497 273.064 276.459 271.194C274.818 276.026 271.846 285.485 268.927 298.383C270.052 298.263 269.199 294.552 270.854 291.886L270.859 291.891Z" fill="#46785C"/>
<path d="M308.102 234.546C303.332 235.204 304.329 235.032 307.491 234.823C307.697 234.732 307.897 234.637 308.102 234.546Z" fill="#46785C"/>
<path d="M292.581 246.963C287.549 251.914 283.785 257.185 281.31 261.163C285.574 257.328 291.789 252.076 298.949 247.049C296.736 246.867 294.675 246.858 292.581 246.963Z" fill="#46785C"/>
<path d="M360.071 334.945C360.887 334.864 361.383 334.086 361.454 333.256C359.441 334.993 359.174 335.036 360.071 334.945Z" fill="#46785C"/>
<path d="M476.926 355.131C479.311 361.036 480.794 366.584 477.431 351.701C477.293 352.837 477.126 353.981 476.926 355.131Z" fill="#46785C"/>
<path d="M283.728 263.829C290.997 261.525 302.655 258.296 316.812 256.016C315.376 253.421 313.025 251.356 309.986 249.853C298.896 254.805 289.514 260.238 283.728 263.829Z" fill="#46785C"/>
<path d="M475.491 355.293C470.287 342.529 463.919 331.52 456.735 322.046C453.63 345.624 450.711 318.326 465.564 360.95C467.348 364.733 468.951 368.611 470.373 372.594C472.772 366.736 474.494 360.941 475.486 355.288L475.491 355.293Z" fill="#46785C"/>
<path d="M480.236 368.458C479.063 364.738 477.794 361.156 476.449 357.693C475.309 363.216 473.496 368.864 471.059 374.559C475.194 386.785 474.245 390.92 478.9 392.58C480.899 387.39 482.149 385.797 480.231 368.458H480.236Z" fill="#46785C"/>
<path d="M302.76 246.199C312.376 247.916 307.701 249.294 312.152 247.391C319.316 244.324 327.683 241.285 336.474 239.187C331.876 237.679 326.71 236.697 321.119 236.253C314.861 238.734 308.569 242.321 302.755 246.199H302.76Z" fill="#46785C"/>
<path d="M453.182 330.365C454.04 318.393 447.653 315.912 444.996 313.279C442.53 310.832 440.708 306.601 439.516 303.353C436.429 300.586 433.267 298.01 430.047 295.616C429.771 297.929 429.356 300.267 428.821 302.623C432.542 305.786 431.65 308.733 433.195 311.037C434.021 312.268 435.89 312.998 436.987 312.001C442.106 315.273 441.424 321.956 442.282 324.269C443.928 328.724 449.924 329.779 452.79 333.566C453.105 331.758 452.929 331.877 453.201 332.311C453.825 330.041 453.821 330.508 453.186 330.365H453.182Z" fill="#46785C"/>
<path d="M360.786 236.454C351.599 234.494 342.107 233.363 332.395 233.149C329.705 233.516 326.948 234.203 324.167 235.138C329.19 235.715 334.17 236.736 339.087 238.596C346.223 237.06 353.588 236.192 360.786 236.454Z" fill="#46785C"/>
<path d="M379.451 241.81C378.741 241.286 365.289 234.851 341.392 239.53C348.776 242.769 354.228 247.501 357.309 253.421C392.116 254.823 394.472 262.422 391.872 256.75C389.211 250.94 385.032 245.913 379.451 241.81Z" fill="#46785C"/>
<path d="M458.968 306.382C453.888 299.403 458.643 303.677 456.983 319.948C477.456 346.497 475.591 360.755 476.392 347.823C476.593 344.627 466.69 316.976 458.968 306.387V306.382Z" fill="#46785C"/>
<path d="M323.075 316.905C321.754 318.183 321.42 320.888 322.589 321.069C324.01 321.288 325.441 315.994 323.075 316.905Z" fill="#46785C"/>
<path d="M329.31 299.594C331.413 301.145 333.545 302.743 335.706 304.393C345.661 295.921 330.302 294.839 329.31 299.594Z" fill="#46785C"/>
<path d="M255.289 282.213C253.744 280.801 255.618 279.976 249.141 284.383C250.414 285.228 251.259 286.267 251.979 287.512C258.805 281.054 257.006 283.787 255.284 282.213H255.289Z" fill="#46785C"/>
<path d="M331.231 309.721C331.217 310.689 330.363 311.619 328.68 311.581C325.851 313.585 325.164 312.683 330.22 316.828C332.443 318.65 333.373 318.631 335.548 317.42C339.011 315.488 339.03 315.545 339.092 315.283C339.207 314.806 338.367 313.68 336.908 313.604C335.167 313.518 333.712 314.734 332.381 314.72C330.397 314.696 330.173 312.392 332.276 311.763C333.34 311.443 336.526 311.782 337.07 308.786C337.375 307.083 336.87 307.031 335.749 306.172C334.294 307.384 332.787 308.567 331.236 309.726L331.231 309.721Z" fill="#46785C"/>
<path d="M382.433 517.162C379.37 518.45 380.677 517.897 379.466 518.388C381.321 518.975 383.172 520.582 382.466 522.323C381.851 523.831 378.693 524.78 380.124 528.601C382.504 527.747 384.861 526.84 387.184 525.877C385.672 523.21 384.083 520.301 382.433 517.162Z" fill="#46785C"/>
<path d="M440.365 479.355C446.394 473.889 451.851 468.151 456.678 462.198C457.98 458.258 456.387 454.365 453.024 457.337C448.831 461.043 447.491 466.195 440.174 465.928C440.441 470.402 440.508 474.881 440.365 479.355Z" fill="#46785C"/>
<path d="M413.49 499.557C422.739 493.771 431.268 487.426 438.924 480.644C439.129 475.635 439.062 470.693 438.757 465.823C426.403 464.55 438.938 462.422 410.228 480.291C411.854 487.064 412.942 493.489 413.495 499.561L413.49 499.557Z" fill="#46785C"/>
<path d="M357.805 330.175C351.881 329.197 353.675 328.362 350.631 325.257C347.87 322.443 342.937 322.648 340.338 319.681C339.904 319.915 339.909 320.578 339.541 320.907C338.296 322.013 336.627 317.983 335.549 319.495C335.849 320.859 336.069 322.342 335.935 323.731C334.981 323.263 334.294 321.322 333.202 321.236C331.079 321.074 330.388 326.02 333.937 326.836C335.73 327.246 338.234 325.996 342.494 327.904C346.095 329.516 345.222 332.231 343.863 332.593C344.597 334.515 349.496 332.159 349.191 334.692C349.115 335.326 348.418 335.779 348.409 336.419C348.404 336.805 348.657 337.158 348.69 337.544C348.867 339.576 345.322 338.727 344.45 340.115C343.868 341.046 344.597 342.834 346.787 342.796C350.016 340.564 353.107 338.26 356.064 335.899C355.578 334.725 356.303 333.6 358.006 334.325C359.031 333.476 360.043 332.627 361.035 331.763C360.31 330.79 359.022 330.38 357.81 330.184L357.805 330.175Z" fill="#46785C"/>
<path d="M440.288 481.183C440.159 483.992 439.954 486.802 439.663 489.606C442.449 486.654 445.115 483.591 447.658 480.429C447.262 470.789 456.74 466.472 440.288 481.183Z" fill="#46785C"/>
<path d="M372.626 269.629C374.997 275.196 380.449 272.148 394.181 282.112C394.558 280.309 394.825 278.525 394.997 276.756C391.696 275.859 389.655 273.674 372.626 269.629Z" fill="#46785C"/>
<path d="M360.872 278.764C360.515 277.576 360.934 279.136 362.151 278.368C363.081 277.781 363.157 276.097 360.562 275.563C357.781 274.991 359.489 273.727 357.214 279.145C359.422 279.794 359.06 279.823 358.735 279.245C359.461 279.193 360.171 278.978 360.872 278.764Z" fill="#46785C"/>
<path d="M356.484 280.791C357.205 282.045 357.944 282.041 358.588 281.363C358.927 281.006 359.156 281.163 356.656 280.428C356.604 280.548 356.542 280.667 356.484 280.791Z" fill="#46785C"/>
<path d="M347.273 292.658C346.324 292.196 345.384 291.743 344.445 291.294C343.171 293.488 342.002 296.365 341.277 299.265C343.386 297.171 345.408 294.958 347.273 292.658Z" fill="#46785C"/>
<path d="M408.816 289.128C407.442 282.107 408.325 287.402 410.543 284.459C410.433 284.034 410.281 283.629 410.09 283.247C405.592 280.943 401.06 278.911 396.538 277.118C396.085 277.027 396.786 276.898 395.432 283.047C400.049 286.586 402.167 290.455 408.816 289.128Z" fill="#46785C"/>
<path d="M414.325 285.503C412.913 287.635 415.098 289.186 417.445 290.216C424.094 293.145 424.724 298.215 423.326 299.217C422.262 299.98 419.51 298.411 413.796 299.78C412.446 300.104 410.838 301.211 411.129 302.427C413.991 304.178 411.272 303.481 426.555 305.89C426.861 304.793 427.142 303.705 427.39 302.618C426.88 301.206 426.178 300.872 427.586 301.726C428.101 299.346 428.497 296.989 428.745 294.666C424.037 291.251 419.205 288.213 414.32 285.508L414.325 285.503Z" fill="#46785C"/>
<path d="M367.655 327.608C372.926 332.364 378.793 338.231 385.543 337.73C389.397 337.444 388.643 334.043 386.487 330.857C381.412 323.354 381.55 316.628 381.259 312.316C380.959 312.111 377.744 317.859 367.655 327.608Z" fill="#46785C"/>
<path d="M368.51 296.88C366.683 295.368 365.876 292.731 363.759 291.662C361.655 290.598 359.036 291.481 356.804 290.722C355.096 290.145 353.622 289.077 352.234 288.275C347.965 294.658 346.444 289.01 371.419 304.293C381.794 310.642 380.668 310.651 381.059 310.108C379.595 297.515 372.082 299.847 368.505 296.88H368.51Z" fill="#46785C"/>
<path d="M380.047 311.491C370.007 304.708 359.451 298.679 348.546 293.284C346.2 296.208 343.6 298.994 340.776 301.684C340.423 303.907 340.304 306.559 341.167 308.643C346.424 312.798 345.813 312.478 346.119 312.469C348.976 312.388 350.698 309.64 356.732 316.705C359.77 320.263 363.143 323.502 366.601 326.655C371.705 321.732 376.208 316.647 380.047 311.491Z" fill="#46785C"/>
<path d="M390.623 303.954C390.389 304.837 390.499 305.819 390.06 306.621C389.855 306.997 389.54 307.307 389.34 307.684C388.319 309.635 390.747 311.605 392.445 310.208C393.075 309.688 393.409 308.786 394.182 308.519C395.093 308.204 396.433 308.82 396.881 307.966C397.144 307.47 396.848 304.398 395.67 303.019C393.934 300.992 391.024 302.437 390.623 303.949V303.954Z" fill="#46785C"/>
<path d="M317.914 236.063C314.661 235.93 311.284 235.972 307.802 236.197C302.531 238.625 297.947 241.959 294.055 245.56C296.349 245.517 298.548 245.627 300.632 245.884C306.051 242.188 311.947 238.691 317.909 236.068L317.914 236.063Z" fill="#46785C"/>
<path d="M266.527 302.9C267.357 298.955 267.896 300.033 263.479 300.038C263.365 300.572 263.121 301.078 262.726 301.488C263.16 302.971 265.053 303.439 266.527 302.9Z" fill="#46785C"/>
<path d="M295.39 269.963C295.238 271.494 295.29 271.16 297.971 271.962C298.596 271.074 298.867 269.949 299.798 269.548C299.969 269.472 300.957 269.534 295.724 269.057C295.543 269.324 295.424 269.624 295.39 269.963Z" fill="#46785C"/>
<path d="M333.826 342.791C335.338 345.062 332.615 346.192 335.715 341.89C322.975 324.222 325.918 327.761 323.881 328.338C325.259 329.86 325.918 332.016 325.622 334.048L322.397 330.704C321.205 333.056 317.971 334.105 315.624 332.903C314.708 332.436 313.955 331.696 313.039 331.238C310.162 329.793 309.538 331.568 303.566 325.486C302.759 325.829 301.948 326.168 301.133 326.497C305.345 337.039 309.952 348.501 314.818 360.464C318.5 358.871 321.968 357.254 325.994 355.193C326.28 353.772 329.214 347.91 333.831 342.796L333.826 342.791Z" fill="#46785C"/>
<path d="M349.353 368.683C349.138 370.366 350.516 371.783 351.194 373.343C351.871 374.903 351.003 377.445 349.372 376.968C346.014 375.99 346.915 365.887 341.463 366.512C336.85 367.042 330.559 366.317 327.32 362.987C328.427 359.839 326.49 357.769 326.099 356.696C322.116 358.713 318.81 360.249 315.338 361.752C320.198 373.701 325.307 386.131 330.521 398.633C342.179 393.639 352.859 387.944 362.675 381.681C358.988 375.837 355.11 369.889 351.041 363.846C351.013 366.269 349.567 367.032 349.357 368.678L349.353 368.683Z" fill="#46785C"/>
<path d="M308.784 450.078C291.078 454.485 293.01 451.742 294.818 456.508C297.355 463.19 298.39 464.736 305.188 466.935C309.109 468.204 313.058 469.472 317.098 470.259C313.802 462.942 311.212 456.522 308.784 450.078Z" fill="#46785C"/>
<path d="M296.86 273.083C296.135 272.868 295.419 272.658 294.727 272.458C293.044 273.459 294.651 274.647 296.86 273.083Z" fill="#46785C"/>
<path d="M312.548 262.04C314.217 263.185 316.483 262.479 318.382 261.897C318.344 260.29 318.033 258.768 317.442 257.327C315.415 257.652 313.45 257.995 311.532 258.348C311.074 259.636 311.398 261.253 312.548 262.04Z" fill="#46785C"/>
<path d="M297.002 262.298C300.541 263.734 298.838 262.761 304.801 259.694C296.129 261.563 288.969 263.619 283.961 265.212C286.456 264.85 289.456 264.454 292.886 264.087C294.035 262.713 295.452 261.673 296.997 262.298H297.002Z" fill="#46785C"/>
<path d="M323.973 440.432C327.555 440.089 330.159 442.231 334.099 440.766C336.918 439.474 338.826 436.03 344.574 436.612C345.361 436.278 345.991 439.321 329.778 400.46C319.155 404.934 308.413 408.521 297.757 411.169C301.086 423.361 305.036 435.906 309.71 448.408C312.105 447.797 314.504 447.134 316.904 446.438C318.139 443.356 320.715 440.738 323.968 440.428L323.973 440.432Z" fill="#46785C"/>
<path d="M314.204 313.241C313.526 313.59 312.94 317.534 316.488 316.165C314.218 313.232 314.251 313.217 314.204 313.241Z" fill="#46785C"/>
<path d="M263.627 311.609C256.486 309.625 251.683 318.993 257.474 323.63C258.933 324.798 260.784 325.318 262.496 326.091C263.517 318.679 264.719 311.791 265.978 305.532C263.651 306.515 263.536 309.11 263.622 311.605L263.627 311.609Z" fill="#46785C"/>
<path d="M306.719 322.576C308.613 321.703 310.478 320.797 312.305 319.857C310.936 319.304 306.671 320.993 306.719 322.576Z" fill="#46785C"/>
<path d="M291.779 265.604C278.443 267.106 281.7 266.591 290.673 267.254C291.369 266.271 291.465 266.085 291.779 265.604Z" fill="#46785C"/>
<path d="M297.933 267.464C296.85 267.965 296.607 267.717 301.038 268.194C300.571 267.044 299.202 267.512 297.933 267.464Z" fill="#46785C"/>
<path d="M307.472 312.549C306.065 312.072 306.27 312.602 305.283 313.441C302.788 315.55 300.079 316.437 300.919 319.876C301.415 321.913 302.989 321.937 304.258 320.644C307.081 317.763 305.932 319.137 307.84 318.273C310.292 317.167 309.614 313.279 307.468 312.549H307.472Z" fill="#46785C"/>
<path d="M312.758 311.362L311.332 309.545C310.197 310.594 311.093 312.268 312.758 311.362Z" fill="#46785C"/>
<path d="M326.739 265.985C327.759 266.495 329.3 265.374 328.733 264.072C327.898 264.048 327.068 264.029 326.247 264.01C325.875 264.649 326.047 265.637 326.743 265.985H326.739Z" fill="#46785C"/>
<path d="M277.999 301.646C274.531 300.792 268.741 302.628 268.316 305.667C268.049 305.481 267.753 305.376 267.443 305.328C266.122 311.825 264.868 319.013 263.809 326.779C266.413 328.338 268.216 330.914 269.318 333.8C273.158 333.252 277.05 332.503 280.976 331.553C279.616 320.511 278.662 310.408 277.995 301.65L277.999 301.646Z" fill="#46785C"/>
<path d="M355.979 274.885C355.058 275.105 353.203 273.407 352.855 275.505C352.707 276.388 352.931 277.309 353.413 278.057C354.233 278.286 355.049 278.515 355.874 278.754C356.05 278.339 358.006 273.435 357.625 273.202C356.737 272.672 356.256 273.984 355.979 274.881V274.885Z" fill="#46785C"/>
<path d="M355.554 254.766C354.09 254.719 352.64 254.69 351.209 254.68C353.041 257.447 353.899 255.224 355.554 254.766Z" fill="#46785C"/>
<path d="M287.186 371.401C268.249 376.205 277.46 371.931 274.212 376.496C272.991 378.208 272.433 376.992 270.84 382.034C268.536 389.341 263.685 396.649 265.769 404.023C266.833 407.777 269.614 411.006 271.526 414.398C279.559 413.563 287.754 412.146 296.011 410.157C292.681 397.774 289.738 384.829 287.186 371.396V371.401Z" fill="#46785C"/>
<path d="M324.22 263.977C319.083 263.915 319.66 263.882 319.603 264.306C319.998 265.904 323.814 265.98 324.22 263.977Z" fill="#46785C"/>
<path d="M398.641 272.415C403.43 273.875 416.595 279.379 415.074 284.183C419.906 286.844 424.523 289.744 428.916 292.883C429.369 287.15 428.992 281.597 427.781 276.298C417.172 269.257 406.03 264.34 394.944 260.996C396.332 265.589 396.848 270.464 396.514 275.54C396.766 275.635 397.014 275.74 397.263 275.835C398.727 275.392 399.791 273.422 398.636 272.415H398.641Z" fill="#46785C"/>
<path d="M363.834 258.267C368.423 260.438 377.806 257.633 379.776 263.777C375.297 266.5 378.908 264.673 375.664 261.649C374.472 260.538 371.381 260.013 371.624 264.115C371.977 270.035 370.007 266.619 387.794 272.429C387.723 272.353 387.651 272.277 387.579 272.2C389.206 271.676 390.899 272.687 392.244 273.736C393.036 274.356 392.311 273.941 395.126 275.005C395.412 269.978 394.839 265.117 393.332 260.523C381.216 257.032 369.196 255.381 358.034 254.857C360.276 255.51 361.731 257.275 363.825 258.262L363.834 258.267Z" fill="#46785C"/>
<path d="M403.65 278.511C404.872 279.055 406.083 279.608 407.28 280.181C406.183 279.441 404.919 278.893 403.65 278.511Z" fill="#46785C"/>
<path d="M322.064 262.131C319.336 262.675 321.172 262.574 322.508 262.584L322.064 262.131Z" fill="#46785C"/>
<path d="M281.152 332.932C277.321 333.853 273.52 334.588 269.771 335.131C271.402 340.536 270.61 346.307 270.643 351.988C270.715 363.174 273.939 370.606 274.498 372.662C278.585 371.956 282.731 371.078 286.923 370.019C284.624 357.774 282.707 345.344 281.152 332.932Z" fill="#46785C"/>
<path d="M296.373 411.503C262.922 419.564 274.183 411.107 273.444 421.329C272.738 431.103 281.3 440.653 285.507 449.506C286.442 447.602 282.712 438.53 279.063 429.581C284.716 436.355 289.404 443.925 292.963 451.996C298.038 451.108 303.152 450.04 308.284 448.766C303.9 437.013 299.927 424.568 296.373 411.503Z" fill="#46785C"/>
<path d="M331.695 304.569C331.051 305.709 329.096 304.87 328.208 305.137C325.222 306.029 328.89 307.36 330.498 308.543C331.91 307.484 333.284 306.406 334.614 305.304C327.455 299.833 332.449 303.224 331.695 304.569Z" fill="#46785C"/>
<path d="M339.203 254.966C340.224 257.986 342.385 258.701 344.054 257.766C345.18 257.132 345.781 255.853 346.449 254.694C344.321 254.732 342.561 254.78 339.208 254.966H339.203Z" fill="#46785C"/>
<path d="M354.418 257.151C353.488 258.453 354.089 258.673 350.95 258.678C347.225 258.682 349.954 260.638 340.371 259.746C338.83 259.603 338.978 260.929 339.388 261.392C340.519 262.67 343.023 261.392 344.707 261.311C346.4 261.225 348.055 262.031 349.739 261.864C351.141 261.721 352.401 260.919 353.789 260.671C355.177 260.423 357.5 260.695 357.919 258.787C357.733 258.105 357.519 257.433 357.271 256.77C356.431 256.102 355.043 256.283 354.418 257.156V257.151Z" fill="#46785C"/>
<path d="M338.959 253.593C342.269 253.407 344.492 253.331 347.421 253.292C348.504 252.124 349.381 252.19 350.259 253.278C352.086 253.278 353.898 253.311 355.697 253.369C352.372 247.468 346.524 242.989 338.906 240.056C329.524 242.116 320.241 245.379 311.541 249.176C314.541 250.836 316.86 253.049 318.262 255.797C324.239 254.871 330.645 254.127 337.337 253.693C340.495 251.885 338.987 252.357 338.959 253.602V253.593Z" fill="#46785C"/>
<path d="M308.045 326.101C308.131 328.748 312.247 328.233 313.802 328.906C314.733 329.311 317.394 331.749 318.811 329.23C319.941 327.222 317.685 326.177 317.308 325.366C316.521 323.678 318.673 322.442 318.921 320.802C319.092 319.662 317.847 318.044 316.459 319.986C316.082 320.515 315.219 322.624 314.594 322.624C313.769 322.624 313.845 321.183 313.507 320.806C311.608 321.784 309.681 322.733 307.721 323.644C311.279 325.781 307.997 324.427 308.055 326.096L308.045 326.101Z" fill="#46785C"/>
<path d="M345.514 289.649C345.061 290.259 344.674 289.84 348.161 291.547C349.182 290.24 350.121 288.938 350.994 287.636C349.21 286.878 347.498 286.973 345.514 289.649Z" fill="#46785C"/>
<path d="M318.845 257.103C319.379 258.501 319.67 259.965 319.732 261.468C324.793 259.832 329.716 257.762 334.423 255.286C328.995 255.72 323.777 256.35 318.845 257.099V257.103Z" fill="#46785C"/>
<path d="M302.507 324.427C301.505 323.449 300.461 322.547 299.287 321.87C300.876 325.858 300.131 325.424 302.507 324.427Z" fill="#46785C"/>
<path d="M284.386 268.246C289.666 269.548 288.76 269.71 289.671 268.57C287.706 268.432 285.931 268.322 284.386 268.246Z" fill="#46785C"/>
<path d="M341.525 345.486C343.157 345.534 343.839 343.101 341.897 341.818C340.972 341.203 339.961 341.15 338.778 340.974C338.497 343.273 336.464 340.53 339.656 345.004C340.271 344.995 340.881 345.467 341.525 345.486Z" fill="#46785C"/>
<path d="M351.366 342.171C353.879 342.605 356.698 347.556 362.489 345.061L358.983 342.204C360.39 341.641 362.089 340.539 361.683 339.08C361.168 337.224 358.416 337.582 357.047 336.914C348.489 343.759 349.524 341.856 351.366 342.175V342.171Z" fill="#46785C"/>
<path d="M339.231 337.334C340.844 334.778 341.101 330.69 338.392 329.345C335.807 328.066 332.477 331.477 333.822 334.029C329.267 332.598 326.834 326.607 329.105 322.404C331.785 317.443 327.178 317.968 326.228 319.881C325.537 321.278 325.871 322.938 325.904 324.498C325.957 327.217 323.605 322.748 336.603 340.75C337.505 339.633 338.473 338.541 339.231 337.334Z" fill="#46785C"/>
<path d="M281.882 269.066C287.549 272.176 286.337 272.224 287.921 270.578C285.559 269.958 283.527 269.457 281.882 269.066Z" fill="#46785C"/>
<path d="M339.155 467.168C338.974 464.888 341.707 463.228 341.726 460.939C341.75 458.497 338.53 457.166 336.226 457.986C333.927 458.807 332.367 460.891 330.75 462.723C320.938 473.837 314.776 454.809 316.397 448.031C314.332 448.618 312.267 449.19 310.206 449.715C312.853 456.708 315.73 463.686 318.854 470.569C322.527 471.147 324.917 470.956 327.411 471.919C330.602 473.145 332.458 475.716 338.482 477.123C352.234 472.721 350.655 472.764 350.627 472.716C348.352 468.943 339.546 472.263 339.145 467.173L339.155 467.168Z" fill="#46785C"/>
<path d="M351.118 453.746C349.487 454.604 350.536 455.692 351.352 455.792C352.005 455.873 352.626 455.601 353.312 455.463C352.096 452.711 352.587 452.973 351.118 453.746Z" fill="#46785C"/>
<path d="M252.646 288.796C255.823 295.798 250.075 295.831 270.763 273.002C266.279 276.565 259.892 281.922 252.646 288.796Z" fill="#46785C"/>
<path d="M274.331 273.202C271.478 278.082 267.09 286.019 262.263 296.28C262.935 296.89 263.379 297.773 263.517 298.684C270.205 298.65 265.177 301.402 274.331 273.202Z" fill="#46785C"/>
<path d="M280.17 269.711C284.568 274.719 283.447 274.552 285.608 272.74C283.418 271.495 281.587 270.479 280.17 269.711Z" fill="#46785C"/>
<path d="M268.249 301.478C268.612 300.954 268.874 300.362 269.069 299.733C268.507 299.79 268.664 299.542 268.249 301.478Z" fill="#46785C"/>
<path d="M281.152 275.826C281.705 275.511 282.249 275.182 282.783 274.834C277.899 269.176 278.505 269.014 281.152 275.826Z" fill="#46785C"/>
<path d="M277.847 271.146C277.88 272.811 277.933 274.995 278.028 277.638C280.38 276.092 280.408 277.762 277.847 271.146Z" fill="#46785C"/>
<path d="M254.831 294.59C256.205 296.67 258.609 295.249 260.603 295.492C262.115 295.678 260.584 293.946 273.195 272.391C269.055 276.879 262.368 284.511 254.831 294.59Z" fill="#46785C"/>
<path d="M317.704 308.471C317.881 307.727 316.927 306.148 314.313 307.941C315.128 307.784 313.96 308.457 312.963 308.767C312.457 308.924 312.352 308.595 313.816 310.47C315.448 308.886 317.342 309.993 317.699 308.471H317.704Z" fill="#46785C"/>
<path d="M338.425 345.667C336.626 343.144 336.593 342.715 336.149 343.941C335.658 345.295 337.199 346.512 338.425 345.667Z" fill="#46785C"/>
<path d="M319.221 316.046C321.807 314.52 321.568 314.873 321.077 313.852C319.779 311.143 319.632 310.656 319.064 310.427C317.876 309.955 316.865 311.982 315.615 311.701L316.13 312.092C316.207 313.814 314.499 311.324 318.019 315.884C318.425 315.884 318.83 315.936 319.221 316.051V316.046Z" fill="#46785C"/>
<path d="M284.777 311.367C283.594 308.061 282.363 304.274 279.435 302.261C280.098 310.789 281.028 320.558 282.335 331.214C287.978 329.788 293.668 327.952 299.325 325.724L297.475 321.078C292.981 319.685 288.579 321.975 284.777 311.367Z" fill="#46785C"/>
<path d="M254.293 280.968C257.932 278.626 259.373 278.263 258.633 276.794C258.557 276.641 259.01 276.279 253.491 279.832C253.787 280.19 254.035 280.581 254.293 280.963V280.968Z" fill="#46785C"/>
<path d="M312.758 311.362C313.273 312.025 314.47 314.138 315.753 312.945C313.068 309.492 314.299 310.522 312.758 311.362Z" fill="#46785C"/>
<path d="M297.246 267.808C289.647 267.087 290.94 266.987 289.676 268.571C298.538 269.2 294.188 269.472 297.246 267.808Z" fill="#46785C"/>
<path d="M267.443 305.328C268.526 299.995 268.55 301.474 267.41 302.408C266.246 303.362 266.723 301.884 265.983 305.542C266.456 305.342 266.961 305.261 267.443 305.332V305.328Z" fill="#46785C"/>
<path d="M258.051 282.451C257.407 282.384 257.965 281.998 256.987 282.88C257.388 282.875 257.765 282.747 258.051 282.451Z" fill="#46785C"/>
<path d="M346.448 254.694C348.013 254.665 349.601 254.661 351.209 254.675C350.899 254.208 350.598 253.692 350.259 253.277C347.092 253.268 347.436 252.963 346.443 254.699L346.448 254.694Z" fill="#46785C"/>
<path d="M176.131 399.94C187.269 531.835 350.755 585.101 439.243 492.154C518.034 410.945 484.596 274.8 377.248 239.412C281.677 205.955 165.967 279.565 176.131 399.94ZM222.519 276.794C232.288 267.201 235.098 264.282 248.859 264.192C247.171 265.823 245.668 267.497 244.371 269.195C226.903 272.883 220.731 278.893 222.519 276.794ZM243.131 270.917C241.857 272.801 240.836 274.7 240.097 276.584C231.52 279.952 221.947 284.588 213.313 290.794C214.816 287.545 216.796 284.24 219.243 280.925C225.992 275.935 234.611 272.835 243.131 270.917ZM301.587 515.836C295.958 506.955 291.05 498.002 286.795 489.067C298.691 488.085 310.878 486.034 323.166 482.952C327.945 492.392 333.064 501.221 338.492 509.421C325.985 512.645 313.583 514.792 301.591 515.836H301.587ZM339.303 510.647C343.009 516.17 346.863 521.398 350.856 526.33C338.067 529.593 325.289 531.596 312.93 532.279C309.18 527.27 305.684 522.223 302.431 517.158C314.423 516.075 326.815 513.895 339.303 510.652V510.647ZM300.012 515.965C290.787 516.695 281.82 516.762 273.253 516.156C265.931 507.284 259.873 498.183 254.912 488.972C264.891 489.95 275.099 489.945 285.259 489.187C289.638 498.383 294.556 507.317 300.017 515.965H300.012ZM254.13 487.498C248.511 476.809 244.347 465.985 241.37 455.22C251.721 456.493 261.981 456.617 272.18 455.93C275.633 466.877 279.783 477.524 284.62 487.841C274.536 488.567 264.347 488.562 254.13 487.498ZM233.672 413.707C224.351 412.237 215.956 409.776 208.61 406.418C209.517 393.501 212.035 381.185 215.465 369.785C247.953 383.808 231.993 357.211 233.672 413.711V413.707ZM207.117 405.722C200.549 402.545 194.868 398.624 190.174 394.016C192.163 381.929 195.822 370.529 200.415 360.011C204.188 363.66 208.796 366.732 214.148 369.193C210.375 381.566 208.028 393.768 207.117 405.717V405.722ZM215.884 368.411C219.715 356.009 224.723 344.256 230.733 332.708C253.644 340.659 244.371 322.738 236.324 373.872C228.802 372.866 221.918 371.034 215.884 368.411ZM214.577 367.829C209.326 365.391 204.761 362.32 201.031 358.632C205.729 348.143 211.763 337.568 219.381 326.812C236.109 339.481 230.194 317.94 214.577 367.829ZM199.938 357.507C196.118 353.419 193.504 348.925 191.863 343.96C197.477 333.924 204.198 324.971 211.181 317.162C212.856 320.487 215.245 323.43 218.293 325.949C211.253 335.87 204.999 346.393 199.938 357.507ZM199.309 358.899C194.539 369.637 190.895 380.913 188.858 392.676C184.951 388.564 181.793 383.951 179.461 378.862C177.997 375.666 185.323 356.028 190.961 345.596C192.798 350.581 195.569 354.998 199.309 358.899ZM189.917 395.7C194.696 400.231 200.425 404.09 207.017 407.219C206.116 420.852 207.108 433.459 209.583 445.303C202.042 441.897 195.469 437.647 190.022 432.6C187.961 419.788 188.147 407.429 189.917 395.7ZM208.515 407.906C215.927 411.236 224.375 413.668 233.719 415.118C234.215 428.489 236.071 441.272 239.295 453.55C228.988 452.11 219.6 449.591 211.329 446.066C208.515 432.987 207.775 420.179 208.515 407.901V407.906ZM239.687 455.005C242.749 466.248 246.975 477.023 252.337 487.307C241.924 486.096 232.322 483.839 223.784 480.625C218.088 469.577 214.162 458.559 211.687 447.721C220.01 451.16 229.403 453.612 239.687 455.005ZM240.979 453.784C237.507 440.767 235.751 427.84 235.236 415.347C244.409 416.654 253.562 416.964 262.964 416.478C265.111 430.177 268.078 442.694 271.755 454.576C261.6 455.239 251.235 455.086 240.979 453.784ZM235.184 413.935C234.726 400.441 235.704 387.472 237.502 375.442C244.738 376.305 252.012 376.42 259.487 375.919C259.721 389.237 260.813 402.321 262.754 415.099C253.52 415.572 244.333 415.266 235.184 413.94V413.935ZM259.463 374.502C252.27 374.993 245.024 374.927 237.717 374.058C239.725 361.165 242.825 348.41 246.732 335.965C251.74 336.4 256.41 336.38 261.29 336.047C259.887 349.14 259.301 361.8 259.468 374.507L259.463 374.502ZM245.744 334.477C240.884 333.991 235.99 333.051 231.387 331.472C237.984 318.98 245.21 307.846 251.955 298.512C263.646 302.008 259.358 291.695 245.744 334.477ZM230.066 331C226.288 329.583 222.977 327.804 220.187 325.686C228.434 314.205 237.349 304.092 245.644 295.673C254.769 301.617 252.174 289.043 230.061 331.005L230.066 331ZM219.104 324.818C216.094 322.309 213.767 319.375 212.188 316.051C220.759 306.625 230.295 298.187 240.583 290.498C241.556 292.163 242.882 293.622 244.504 294.863C236.224 303.286 227.332 313.375 219.104 324.818ZM226.169 300.386C220.912 305.013 216.042 309.769 211.568 314.639C210.356 311.605 209.779 308.381 209.822 305.018C218.498 296.709 228.325 289.635 238.714 283.787C238.923 293.532 245.329 283.529 226.169 300.386ZM235.918 283.787C226.202 289.449 217.497 295.874 209.922 302.938C210.189 299.819 210.967 296.594 212.25 293.308C220.883 286.754 230.671 281.864 239.501 278.32C237.974 283.4 240.192 281.292 235.914 283.787H235.918ZM215.188 284.402C215.422 284.168 213.037 287.612 211.1 292.454C208.667 294.319 206.321 296.313 204.117 298.45C207.532 293.551 211.234 288.862 215.188 284.402ZM191.429 320.525C191.93 318.493 197.301 309.044 199.19 305.967C202.4 301.87 206.144 298.202 210.199 294.92C209.14 298.135 208.558 301.283 208.448 304.331C189.936 322.171 187.889 334.978 191.429 320.52V320.525ZM190.036 329.908C195.331 320.821 201.703 313.012 208.448 306.358C208.558 309.444 209.173 312.416 210.308 315.24C210.895 316.7 201.899 323.554 191.357 341.88C191.109 342.314 189.731 336.199 190.036 329.908ZM189.053 325.567C188.023 332.97 190.203 325.367 184.655 337.125C185.967 333.199 187.436 329.345 189.053 325.567ZM180.768 350.857C182.848 344.227 185.519 338.107 188.605 332.455C188.648 336.376 189.22 340.139 190.327 343.731C176.012 369.579 179.656 380.522 177.391 373.534C177.114 372.685 178.416 360.984 180.768 350.862V350.857ZM177.081 376.792C177.825 378.709 177.691 377.135 176.876 382.468C176.909 380.569 176.976 378.676 177.081 376.792ZM181.536 422.841C175.902 400.723 176.909 390.105 178.64 380.35C181.14 385.535 184.474 390.229 188.576 394.388C186.616 406.685 186.53 418.896 188.309 430.95C183.716 426.352 181.889 423.137 181.531 422.836L181.536 422.841ZM182.509 426.461C184.369 428.846 186.425 431.107 188.676 433.23C190.131 441.911 192.55 450.512 195.936 459.002C190.27 448.814 185.733 437.909 182.509 426.461ZM190.413 434.814C195.932 439.646 202.495 443.729 209.965 446.996C212.469 458.263 216.414 469.229 221.78 479.847C214 476.713 207.155 472.754 201.47 468.027C195.917 456.713 192.359 445.608 190.413 434.814ZM203.735 471.557C209.23 475.583 215.613 478.979 222.739 481.712C227.733 491.262 233.886 500.525 241.184 509.478C226.598 499.132 213.91 486.277 203.74 471.557H203.735ZM224.752 482.461C233.29 485.528 242.825 487.66 253.119 488.796C258.204 498.312 264.276 507.398 271.316 516.032C261.695 515.231 252.608 513.561 244.256 511.014C236.271 501.546 229.841 491.996 224.752 482.466V482.461ZM246.589 513.141C254.66 515.379 263.37 516.829 272.537 517.511C276.372 522.114 280.489 526.583 284.877 530.924C271.207 526.774 258.342 520.75 246.584 513.146L246.589 513.141ZM288.054 531.849C286.738 531.482 276.706 520.263 274.498 517.644C283.408 518.198 292.156 518.026 300.871 517.301C304.148 522.424 307.616 527.447 311.27 532.364C295.705 533.07 288.813 531.563 288.054 531.845V531.849ZM295.505 533.729C315.544 534.745 310.65 531.658 314.613 536.767C308.117 536.157 301.739 535.136 295.505 533.729ZM316.502 536.934C310.845 529.717 312.872 537.583 351.829 527.523C353.851 529.984 355.912 532.364 358.006 534.668C344.326 537.316 330.469 538.074 316.502 536.934ZM463.828 455.787C463.818 454.685 463.556 455.434 465.502 452.496C464.958 453.598 464.395 454.695 463.828 455.787ZM470.115 442.231C469.561 442.613 468.927 444.95 463.771 452.634C463.604 446.333 463.122 440.142 462.33 434.065C468.44 425.903 473.263 417.599 476.664 409.399C477.322 417.599 478.462 421.625 470.115 442.226V442.231ZM437.04 365.63C430.304 355.379 422.348 345.72 413.113 336.581C417.984 329.559 422.2 322.061 425.32 314.033C434.612 321.269 443.317 329.745 450.844 339.662C447.677 348.229 443.059 356.953 437.044 365.63H437.04ZM451.85 341.017C459.067 350.786 465.139 361.928 469.533 374.631C465.826 383.145 460.703 391.769 454.273 400.25C450.138 388.583 444.667 377.455 437.87 366.904C443.846 358.365 448.554 349.665 451.85 341.012V341.017ZM412.36 335.24C411.52 336.462 406.068 327.527 382.051 311.157C385.948 305.776 389.416 299.933 392.016 293.732C402.891 298.893 413.872 305.275 424.175 313.151C421.394 320.415 417.449 327.823 412.36 335.24ZM412.24 337.826C420.85 346.416 428.974 356.104 436.076 366.999C430.109 375.394 423.302 383.136 415.78 390.41C409.555 379.906 402.166 369.494 393.661 359.219C400.711 352.427 406.955 345.257 412.24 337.826ZM430.576 425.651C421.303 433.931 410.976 441.649 399.796 448.68C395.321 437.742 390.208 427.139 384.742 416.817C396.08 409.39 406.354 401.276 415.374 392.733C421.385 403.093 426.589 414.088 430.576 425.651ZM436.892 368.282C443.336 378.371 448.907 389.47 453.186 401.662C446.68 410.043 439.405 417.656 431.793 424.558C413.805 372.737 408 408.579 436.896 368.277L436.892 368.282ZM453.725 403.232C456.945 412.729 459.387 422.879 460.856 433.721C454.431 442.221 447.133 449.872 439.358 456.846C433.314 407.563 422.381 443.137 453.725 403.232ZM454.822 401.81C461.219 393.467 466.38 384.977 470.186 376.572C473.177 385.683 475.304 395.581 476.382 406.332C473.148 414.866 468.326 423.547 462.058 432.1C460.57 421.649 458.161 411.546 454.817 401.81H454.822ZM478.381 414.36C477.68 399.969 476.998 412.648 480.737 396.945C480.289 402.85 479.488 408.66 478.381 414.36ZM477.465 403.327C475.81 389.289 474.47 387.853 473.525 384.872C466.99 364.175 464.548 355.308 452.504 339.242C454.579 333.456 454.345 334.148 453.2 332.316C452.69 334.167 452.122 336.023 451.474 337.893C422.687 300.534 424.013 323.902 428.826 302.628C426.25 300.439 428.206 303.258 427.729 306.077C425.959 305.8 427.132 305.013 424.723 311.658C415.021 304.336 404.208 297.93 392.545 292.43C393.8 289.258 394.763 286.129 395.441 283.052C393.06 281.23 395.364 281.383 391.253 291.824C380.654 286.911 369.864 282.947 358.984 279.68C359.217 280.095 359.432 280.142 358.817 281.077C369.707 284.359 380.334 288.285 390.723 293.131C388.367 298.779 385.114 304.484 381.064 310.112C381.15 310.847 381.212 311.581 381.264 312.321C391.338 319.213 401.575 327.337 411.229 336.834C405.982 344.241 399.777 351.382 392.76 358.151C364.908 324.847 363.115 332.002 367.656 327.613C366.301 326.392 367.05 326.292 364.541 328.615C358.664 323.177 352.673 317.964 345.933 312.469C343.791 312.426 342.017 310.675 341.173 308.648C339.718 307.498 338.268 306.363 336.832 305.256C341.707 301.087 340.557 302.142 341.278 299.27C332.091 308.405 334.695 302.871 363.463 329.507C363.515 329.555 363.816 329.335 361.03 331.758C362.07 333.146 360.214 334.472 364.555 330.523C373.575 338.947 382.872 348.53 391.715 359.157C385.576 364.976 386.139 363.378 387.012 365.291C388.925 363.627 390.795 361.943 392.607 360.23C400.521 369.842 408.043 380.293 414.645 391.498C405.558 400.136 395.278 408.235 384.083 415.581C380.434 408.741 376.456 401.71 372.168 394.503C370.527 396.64 370.613 393.253 382.915 416.34C357.61 432.724 356.169 429.247 355.182 433.383C365.218 428.613 374.715 423.308 383.573 417.58C389.044 427.926 394.148 438.525 398.603 449.434C395.713 451.227 392.76 452.973 389.76 454.676C389.984 455.663 388.939 456.369 387.976 456.694C380.749 459.126 382.471 458.807 389.76 454.676C389.264 452.51 386.082 454.232 385.591 454.433C381.15 456.274 377.234 452.51 377.796 455.844C377.906 456.484 378.755 457.194 378.913 457.996C379.061 458.754 378.383 459.594 378.999 460.295C379.118 460.428 378.736 460.643 383.306 458.215C381.665 459.069 380.463 461.502 379.108 460.395C372.645 463.682 366.778 466.372 360.82 468.876C358.836 464.473 356.823 459.956 354.796 455.358C352.807 455.277 352.463 453.708 359.542 469.41C348.862 473.837 350.837 472.158 351.156 474.209C354.147 473.088 357.133 471.915 360.114 470.674C361.927 474.686 363.711 478.592 365.471 482.399C367.365 481.998 367.236 483.067 361.393 470.14C375.154 464.354 387.718 457.81 399.137 450.731C406.235 468.361 403.645 466.071 406.092 465.742C404.432 460.653 402.514 455.401 400.33 449.982C411.482 442.985 421.79 435.305 431.068 427.077C434.387 436.984 436.806 447.301 438.065 457.996C435.318 460.414 432.46 462.78 429.527 465.089C432.47 464.693 430.533 466.41 438.256 459.675C439.01 466.782 438.18 465.857 440.188 465.928C440.04 463.462 439.83 460.996 439.558 458.53C447.39 451.575 454.684 444.005 461.109 435.677C461.863 441.773 462.311 448.084 462.416 454.614C460.622 457.175 458.71 459.708 456.692 462.198C455.404 466.095 452.432 468.442 450.09 471.705C463.742 457.347 462.454 454.781 462.444 458.373C440.235 498.755 406.784 524.69 359.609 534.358C357.457 532.007 355.363 529.593 353.322 527.127C362.094 524.794 370.856 521.87 379.48 518.388C375.287 517.062 375.159 519.953 352.349 525.944C348.261 520.921 344.411 515.679 340.772 510.265C347.192 508.557 353.632 506.564 360.057 504.298C360.109 501.24 363.2 502.9 339.952 509.044C334.337 500.577 329.248 491.7 324.63 482.58C330.235 481.14 335.854 479.48 341.473 477.615C335.038 476.98 344.192 476.141 323.991 481.311C317.723 468.785 319.784 470.775 317.118 470.255C318.873 474.152 320.686 477.963 322.546 481.679C310.258 484.746 298.071 486.773 286.184 487.722C281.166 477.023 277.059 466.348 273.735 455.825C280.246 455.334 286.871 454.485 293.554 453.307C292.395 450.564 295.252 452.849 273.31 454.466C269.27 441.449 266.413 428.675 264.462 416.392C267.038 416.235 269.633 416.015 272.246 415.734C271.326 413.797 272.733 414.498 264.242 415.009C262.115 401.185 261.132 388.001 260.899 375.809C265.454 375.456 270.09 374.865 274.779 374.054C274.541 371.483 275.528 373.248 260.875 374.392C260.698 362.043 261.261 349.317 262.707 335.937C265.039 335.746 267.405 335.474 269.79 335.126C269.208 333.189 270.443 333.891 262.864 334.53C263.866 325.6 264.366 326.922 262.52 326.092C262.139 328.868 261.781 331.715 261.452 334.639C256.529 334.988 251.745 334.978 247.171 334.601C251.34 321.551 256.086 309.816 260.579 299.952C263.765 300.138 263.78 300.305 263.536 298.679C262.74 298.679 261.953 298.679 261.18 298.64C261.552 297.839 261.919 297.052 262.282 296.274C261.934 295.96 261.528 295.721 261.075 295.588C260.617 296.556 260.159 297.543 259.697 298.555C257.226 298.359 254.917 297.958 252.804 297.362C253.496 296.418 254.173 295.497 254.85 294.595C253.815 293.026 255.051 291.92 251.402 296.933C249.637 296.332 248.039 295.583 246.632 294.686C253.396 287.884 252.976 289.196 251.998 287.517C249.885 289.515 247.705 291.633 245.473 293.885C243.898 292.692 242.63 291.28 241.714 289.659C244.261 287.779 246.746 286.024 249.16 284.383C247.71 283.419 248.387 283.019 241.089 288.394C240.431 286.839 240.121 285.304 240.087 283.639C238.814 282.866 238.456 281.516 240.364 280.467C240.965 277.3 240.364 277.815 246.937 275.549C259.806 271.118 255.785 273.722 257.55 270.827C251.907 272.372 246.718 274.07 241.833 275.921C242.649 274.118 243.732 272.301 245.062 270.507C260.455 267.349 258.576 269.911 261.314 266.882C255.723 267.283 250.867 267.936 246.412 268.79C252.127 261.926 251.497 265.751 248.759 262.78C244.624 262.823 240.583 263.238 237.063 264.249C300.036 216.43 387.546 221.639 443.236 284.869C442.067 277.414 496.512 346.655 477.456 403.318L477.465 403.327Z" fill="#46785C"/>
<path d="M410.094 283.248C414.458 285.48 414.458 286.148 415.078 284.183C412.536 282.78 409.936 281.445 407.279 280.176C408.477 280.982 409.483 282.003 410.094 283.248Z" fill="#46785C"/>
<path d="M403.192 278.378C405.066 278.874 400.215 276.994 397.272 275.835C395.736 276.303 394.033 275.12 392.779 274.147C391.138 273.555 389.483 272.978 387.799 272.429C392.292 277.362 399.576 277.424 403.187 278.382L403.192 278.378Z" fill="#46785C"/>
<path d="M250.19 277.891C258.781 273.884 256.672 275.725 256.706 273.507C253.744 274.733 250.567 276.145 247.242 277.757C248.22 277.633 249.231 277.671 250.19 277.895V277.891Z" fill="#46785C"/>
<path d="M277.999 301.645C279.902 302.113 279.516 303.582 279.115 297.906C281.805 297.205 284.529 296.322 287.262 295.258C298.958 325.009 296.788 320.434 299.287 321.87C295.252 311.743 291.627 302.566 288.555 294.743C291.307 293.618 293.931 292.353 296.401 290.989C314.198 312.588 310.354 309.616 312.581 308.881C307.167 301.989 302.116 295.74 297.632 290.298C300.523 288.628 303.184 286.811 305.588 284.898C339.002 306.487 329.486 303.119 329.267 300.195C329.152 298.626 307.983 284.798 306.719 283.977C308.942 282.117 310.921 280.176 312.624 278.191C348.28 290.746 343.181 293.05 345.189 290.112C308.059 272.415 312.142 281.106 317.117 271.695C328.565 273.479 341.668 276.121 355.311 280.037C351.103 289.172 349.897 286.916 352.239 288.27C359.174 277.896 355.354 281.044 353.417 278.058C309.428 265.823 318.076 275.687 319.603 264.301C319.192 262.67 321.668 262.565 319.75 262.575C319.793 261.139 319.932 261.415 318.386 261.888C318.429 263.853 319.321 261.244 292.895 264.077C290.153 267.349 290.911 264.273 318.281 263.967C318.043 265.99 317.399 268.074 316.392 270.173C310.831 269.324 305.674 268.675 301.043 268.184C302.087 270.769 292.671 267.984 315.725 271.475C314.785 273.183 313.616 274.895 312.233 276.579C307.038 274.767 302.245 273.235 297.975 271.957C296.592 273.927 294.188 271.781 311.269 277.71C309.605 279.589 307.682 281.435 305.526 283.2C297.98 278.349 291.531 274.514 286.714 271.762C284.858 273.483 283.489 270.707 304.382 284.111C302.063 285.914 299.507 287.626 296.74 289.21C282.416 271.862 284.19 273.903 282.788 274.819C286.012 278.554 290.363 283.667 295.509 289.897C293.158 291.18 290.663 292.373 288.049 293.441C280.336 273.808 281.362 275.716 280.746 276.05C279.683 276.627 279.072 274.375 286.757 293.951C284.162 294.958 281.572 295.802 279.02 296.484C278.495 288.852 278.199 282.461 278.032 277.619C276.472 278.645 276.248 276.455 277.655 296.837C267.581 299.313 269.899 297.085 269.074 299.718C279.559 298.65 277.608 296.456 278.004 301.631L277.999 301.645Z" fill="#46785C"/>
<path d="M438.527 300.438C440.121 305.69 438.647 301.297 449.389 313.184C449.059 312.282 448.916 311.495 449.017 310.555C445.706 306.992 442.215 303.62 438.532 300.443L438.527 300.438Z" fill="#46785C"/>
<path d="M454.183 330.465C454.273 327.26 454.221 328.309 453.687 330.446C453.853 330.461 454.016 330.47 454.183 330.465Z" fill="#46785C"/>
<path d="M357.043 256.145C357.463 257.189 358.207 257.499 357.925 258.782C358.512 260.934 358.812 263.171 358.812 265.48C341.507 262.689 322.255 262.322 322.666 262.742C323.281 262.303 324.445 262.88 324.221 263.982C324.893 263.991 325.566 264.001 326.248 264.015C326.353 263.839 326.491 263.681 326.682 263.581L326.844 263.061C327.607 262.889 328.428 263.376 328.733 264.072C338.144 264.349 348.309 265.179 358.774 266.877C358.517 272.033 356.995 273.674 358.736 274.924C361.364 266.138 358.545 266.806 362.204 267.464C374.472 269.668 372.703 270.488 372.13 268.089C352.158 263.476 364.536 269.61 358.006 254.862C358.269 254.876 356.761 254.437 355.559 254.771C356.599 254.804 356.389 254.518 357.048 256.149L357.043 256.145Z" fill="#46785C"/>
<path d="M288.965 269.419C287.558 271.046 286.724 270.144 294.728 272.458C297.084 271.055 293.397 270.597 288.965 269.419Z" fill="#46785C"/>
<path d="M352.292 453.144C354.004 452.31 354.543 455.009 346.839 437.155C347.178 437.007 345.122 436.669 344.574 436.612C316.126 448.656 317.294 444.291 316.397 448.026C326.152 445.25 335.921 441.801 345.561 437.699C347.817 442.922 350.059 448.079 352.287 453.144H352.292Z" fill="#46785C"/>
<path d="M384.799 366.817C384.713 367.335 384.631 367.316 384.895 367.091L384.799 366.817Z" fill="#46785C"/>
<path d="M336.661 343.196C337.872 342.028 338.197 342.953 336.603 340.744C335.463 342.156 335.563 341.67 336.661 343.196Z" fill="#46785C"/>
<path d="M262.845 263.796C253.734 262.517 257.035 263.118 254.188 264.344C263.212 264.893 262.616 265.975 262.845 263.796Z" fill="#46785C"/>
<path d="M338.425 345.668C338.849 346.264 339.274 346.851 339.698 347.452C326.013 355.976 325.264 354.397 326.104 356.701C331.089 354.173 335.902 351.468 340.514 348.601C344.363 354.049 347.707 358.904 351.041 363.856C351.07 361.619 349.754 359.334 347.664 358.461C349.253 358.198 349.162 358.437 341.688 347.857C354.714 339.61 349.491 342.744 346.787 342.796C344.864 344.127 342.894 345.434 340.877 346.712C339.336 344.542 339.77 344.747 338.43 345.668H338.425Z" fill="#46785C"/>
<path d="M320.604 316.476C319.598 316.552 319.917 315.65 318.486 316.48C318.081 315.956 318.076 315.607 316.659 316.104C316.43 316.185 316.359 315.989 317.275 317.177C311.021 320.726 312.104 319.271 313.497 320.802C315.066 319.986 316.616 319.147 318.133 318.283C320.413 321.25 322.746 324.317 325.107 327.466C326.156 326.054 326.352 326.698 319.345 317.587C321.787 316.166 324.143 314.677 326.423 313.141C325.88 311.043 328.231 311.572 328.68 311.582C331.484 309.597 331.341 309.736 331.155 309.24C330.573 307.704 330.445 309.144 321.425 314.715C321.715 315.736 321.181 316.428 320.604 316.476Z" fill="#46785C"/>
<path d="M302.508 324.427C303.796 325.681 302.77 325.934 307.717 323.644C305.666 322.414 308.542 321.884 302.508 324.427Z" fill="#46785C"/>
<path d="M428.239 272.597C426.665 273.407 426.751 272.334 427.262 274.204C426.47 273.689 425.668 273.188 424.862 272.692C427.81 278.263 434.049 278.325 448.908 294.195C448.016 292.397 446.981 290.67 445.812 289.034C440.584 283.935 434.97 279.37 428.988 275.339C428.764 274.414 428.511 273.498 428.239 272.592V272.597Z" fill="#46785C"/>
<path d="M312.695 256.865C309.957 257.451 307.296 258.41 304.806 259.693C306.957 259.231 309.204 258.778 311.531 258.343C311.746 257.738 312.137 257.203 312.695 256.865Z" fill="#46785C"/>
<path d="M338.959 253.593C336.751 253.717 338.11 253.35 334.428 255.286C340.719 254.785 338.916 255.525 338.959 253.593Z" fill="#46785C"/>
<path d="M359.508 334.906C357.357 334.458 358.993 333.547 356.06 335.889C356.789 337.654 357.72 336.395 359.508 334.906Z" fill="#46785C"/>
</g>
<defs>
<linearGradient id="paint0_linear_56_365" x1="206.094" y1="189.567" x2="438.163" y2="801.907" gradientUnits="userSpaceOnUse">
<stop stop-color="white" stop-opacity="0"/>
<stop offset="1" stop-color="white"/>
</linearGradient>
<linearGradient id="paint1_linear_56_365" x1="368.665" y1="-396.578" x2="945.73" y2="1126.08" gradientUnits="userSpaceOnUse">
<stop stop-color="white" stop-opacity="0"/>
<stop offset="1" stop-color="white"/>
</linearGradient>
<linearGradient id="paint2_linear_56_365" x1="1120.62" y1="-198.482" x2="-795.236" y2="1353.47" gradientUnits="userSpaceOnUse">
<stop stop-color="white" stop-opacity="0"/>
<stop offset="1" stop-color="white"/>
</linearGradient>
<linearGradient id="paint3_linear_56_365" x1="1020.13" y1="-282.437" x2="582.288" y2="397.152" gradientUnits="userSpaceOnUse">
<stop stop-color="#5E8F51"/>
<stop offset="1" stop-color="#5E8F51" stop-opacity="0"/>
</linearGradient>
<linearGradient id="paint4_linear_56_365" x1="1339.55" y1="-598.516" x2="-475.207" y2="1179.26" gradientUnits="userSpaceOnUse">
<stop stop-color="white"/>
<stop offset="1" stop-color="white" stop-opacity="0"/>
</linearGradient>
</defs>
</svg>
