<svg width="50" height="50" viewBox="0 0 50 50" fill="none" xmlns="http://www.w3.org/2000/svg">
<g clip-path="url(#clip0_23_408)">
<path d="M22.9167 12.5C22.9167 14.1576 24.0141 15.7473 25.9676 16.9194C27.9211 18.0915 30.5707 18.75 33.3333 18.75C36.096 18.75 38.7455 18.0915 40.699 16.9194C42.6525 15.7473 43.75 14.1576 43.75 12.5C43.75 10.8424 42.6525 9.25269 40.699 8.08058C38.7455 6.90848 36.096 6.25 33.3333 6.25C30.5707 6.25 27.9211 6.90848 25.9676 8.08058C24.0141 9.25269 22.9167 10.8424 22.9167 12.5Z" stroke="#46785C" stroke-width="2.08333" stroke-linecap="round" stroke-linejoin="round"/>
<path d="M22.9167 12.5V20.8333C22.9167 24.2854 27.5812 27.0833 33.3333 27.0833C39.0854 27.0833 43.75 24.2854 43.75 20.8333V12.5" stroke="#46785C" stroke-width="2.08333" stroke-linecap="round" stroke-linejoin="round"/>
<path d="M22.9167 20.8333V29.1666C22.9167 32.6187 27.5812 35.4166 33.3333 35.4166C39.0854 35.4166 43.75 32.6187 43.75 29.1666V20.8333" stroke="#46785C" stroke-width="2.08333" stroke-linecap="round" stroke-linejoin="round"/>
<path d="M22.9167 29.1667V37.5001C22.9167 40.9522 27.5812 43.7501 33.3333 43.7501C39.0854 43.7501 43.75 40.9522 43.75 37.5001V29.1667" stroke="#46785C" stroke-width="2.08333" stroke-linecap="round" stroke-linejoin="round"/>
<path d="M14.5833 18.75H9.375C8.5462 18.75 7.75134 19.0792 7.16529 19.6653C6.57924 20.2513 6.25 21.0462 6.25 21.875C6.25 22.7038 6.57924 23.4987 7.16529 24.0847C7.75134 24.6708 8.5462 25 9.375 25H11.4583C12.2871 25 13.082 25.3292 13.668 25.9153C14.2541 26.5013 14.5833 27.2962 14.5833 28.125C14.5833 28.9538 14.2541 29.7487 13.668 30.3347C13.082 30.9208 12.2871 31.25 11.4583 31.25H6.25" stroke="#46785C" stroke-width="2.08333" stroke-linecap="round" stroke-linejoin="round"/>
<path d="M10.4167 31.2501V33.3334M10.4167 16.6667V18.7501" stroke="#46785C" stroke-width="2.08333" stroke-linecap="round" stroke-linejoin="round"/>
</g>
<defs>
<clipPath id="clip0_23_408">
<rect width="50" height="50" fill="white"/>
</clipPath>
</defs>
</svg>
