<svg width="74" height="55" viewBox="0 0 74 55" fill="none" xmlns="http://www.w3.org/2000/svg">
<g clip-path="url(#clip0_73_126)">
<path d="M72.9966 53.9311H72.9811L50.0748 53.6151C49.543 53.6151 49.1191 53.1681 49.1268 52.6363C49.1268 52.1122 49.5661 51.6882 50.0902 51.6882H50.1057L71.4088 51.9811L46.8146 4.0027L30.6291 35.0711L40.1785 52.0274C40.3481 52.328 40.3404 52.6979 40.1708 52.9908C39.9936 53.2837 39.6622 53.4687 39.3307 53.4609L20.5941 53.1989C20.2627 53.1989 19.9544 53.0139 19.7771 52.7287C19.6076 52.4436 19.5921 52.089 19.7463 51.7884L28.4402 35.102L20.5864 21.1593L1.7881 52.4667C1.51063 52.9214 0.924873 53.0679 0.470137 52.7981C0.0154021 52.5206 -0.131038 51.9349 0.13872 51.4801L19.7848 18.7546C19.9621 18.4617 20.2935 18.2536 20.6249 18.2845C20.9718 18.2845 21.2801 18.4772 21.4496 18.7777L29.4961 33.0672L45.9668 1.45927C46.1286 1.14326 46.4601 0.942871 46.8223 0.942871C47.1846 0.942871 47.516 1.14326 47.6778 1.46697L73.8598 52.5284C74.0139 52.8289 73.9985 53.1912 73.8213 53.4764C73.644 53.7615 73.3357 53.9311 73.0043 53.9311H72.9966ZM22.1741 51.3029L37.6736 51.5187L29.5655 37.1136L22.1741 51.3029Z" fill="#46785C"/>
<path d="M45.9668 54.5401C44.6489 54.5401 43.5698 53.4688 43.5698 52.1586C43.5698 50.8483 44.6412 49.777 45.9668 49.777C47.2925 49.777 48.3638 50.8483 48.3638 52.1586C48.3638 53.4688 47.2925 54.5401 45.9668 54.5401ZM45.9668 51.7038C45.7125 51.7038 45.4967 51.9119 45.4967 52.1586C45.4967 52.4052 45.7048 52.6133 45.9668 52.6133C46.2289 52.6133 46.437 52.4052 46.437 52.1586C46.437 51.9119 46.2289 51.7038 45.9668 51.7038Z" fill="#46785C"/>
</g>
<defs>
<clipPath id="clip0_73_126">
<rect width="73.96" height="53.5971" fill="white" transform="translate(0 0.942871)"/>
</clipPath>
</defs>
</svg>
