<svg width="56" height="56" viewBox="0 0 56 56" fill="none" xmlns="http://www.w3.org/2000/svg">
<path d="M48.125 35C47.642 35 47.25 34.608 47.25 34.125V23.835C47.25 21.959 46.0617 20.2947 44.2925 19.6945L40.2832 18.3295C39.2175 17.9655 38.5 16.9628 38.5 15.8375V13.125C38.5 12.642 38.892 12.25 39.375 12.25C39.858 12.25 40.25 12.642 40.25 13.125V15.8375C40.25 16.2208 40.4845 16.548 40.8467 16.6723L44.8543 18.0373C47.334 18.8773 49 21.2083 49 23.835V34.125C49 34.608 48.608 35 48.125 35Z" fill="#46785C"/>
<path d="M44.625 52.5C44.142 52.5 43.75 52.108 43.75 51.625V40.25C43.75 39.767 44.142 39.375 44.625 39.375C45.108 39.375 45.5 39.767 45.5 40.25V51.625C45.5 52.108 45.108 52.5 44.625 52.5Z" fill="#46785C"/>
<path d="M26.677 21.2835C26.4722 21.2835 26.2657 21.2118 26.0995 21.0665C25.7355 20.7462 25.7005 20.195 26.0207 19.831C26.7242 19.0295 27.6307 18.4205 28.6422 18.0722L32.6497 16.6897C33.0102 16.5672 33.25 16.2382 33.25 15.8725V13.125C33.25 12.642 33.642 12.25 34.125 12.25C34.608 12.25 35 12.642 35 13.125V15.8725C35 16.989 34.2825 17.9812 33.2167 18.3452L29.2127 19.726C28.4882 19.9763 27.839 20.412 27.335 20.986C27.1617 21.182 26.9202 21.2835 26.677 21.2835Z" fill="#46785C"/>
<path d="M34.1163 13.993C33.9325 13.993 33.7488 13.9353 33.5895 13.8162C32.263 12.8135 31.5 11.2858 31.5 9.625V6.125C31.5 3.71175 33.4635 1.75 35.875 1.75H37.625C40.0365 1.75 42 3.71175 42 6.125V9.625C42 10.108 41.608 10.5 41.125 10.5C40.642 10.5 40.25 10.108 40.25 9.625V6.125C40.25 4.67775 39.0722 3.5 37.625 3.5H35.875C34.4277 3.5 33.25 4.67775 33.25 6.125V9.625C33.25 10.7327 33.7593 11.7513 34.6448 12.4198C35.0298 12.712 35.1068 13.2597 34.8163 13.6447C34.643 13.874 34.3823 13.993 34.1163 13.993Z" fill="#46785C"/>
<path d="M37.6303 14.7858C37.2226 14.7858 36.8586 14.5005 36.7746 14.0858C36.6783 13.6115 36.9828 13.1513 37.4571 13.0533C39.0758 12.7243 40.2501 11.2805 40.2501 9.625C40.2501 9.142 40.6421 8.75 41.1251 8.75C41.6081 8.75 42.0001 9.142 42.0001 9.625C42.0001 12.11 40.2361 14.2713 37.8071 14.7683C37.7476 14.7805 37.6898 14.7858 37.6303 14.7858Z" fill="#46785C"/>
<path d="M10.5 24.5C10.4282 24.5 10.3565 24.4913 10.2847 24.472C9.81574 24.3547 9.53224 23.8787 9.64949 23.4115L10.1045 21.609C10.9427 18.2437 11.4467 14.7525 11.6007 11.2315V10.9375C11.7477 7.7315 14.3377 5.25 17.5 5.25C19.0452 5.25 20.4925 5.83625 21.5775 6.8985C22.6747 7.9345 23.3187 9.359 23.3782 10.9025L23.3957 11.2228C23.527 14.2188 23.9155 17.213 24.549 20.1303C24.6522 20.6045 24.3512 21.0682 23.8787 21.1715C23.408 21.2712 22.9407 20.9737 22.8375 20.503C22.183 17.4877 21.7822 14.3955 21.6457 11.3085L21.6282 10.9847C21.5862 9.88925 21.1365 8.89175 20.363 8.162C19.5965 7.40775 18.5832 7 17.5 7C15.2757 7 13.454 8.7465 13.3507 10.976V11.27C13.1897 14.945 12.6682 18.5535 11.802 22.0325L11.347 23.8368C11.249 24.2358 10.892 24.5 10.5 24.5Z" fill="#46785C"/>
<path d="M24.9952 24.9462C24.7765 24.9462 24.5578 24.864 24.3863 24.6995C23.8525 24.1833 23.2365 23.772 22.5557 23.478L20.8285 22.7308C19.8695 22.3178 19.25 21.3745 19.25 20.3297V17.5C19.25 17.017 19.642 16.625 20.125 16.625C20.608 16.625 21 17.017 21 17.5V20.3297C21 20.6745 21.2048 20.9878 21.5215 21.1243L23.2487 21.8715C24.1255 22.2513 24.9165 22.7798 25.6025 23.4413C25.949 23.7773 25.9595 24.332 25.6235 24.6785C25.452 24.857 25.2245 24.9462 24.9952 24.9462Z" fill="#46785C"/>
<path d="M11.375 52.5001C10.892 52.5001 10.5 52.1081 10.5 51.6251V41.6501C10.5 41.1671 10.892 40.7751 11.375 40.7751C11.858 40.7751 12.25 41.1654 12.25 41.6501V51.6251C12.25 52.1081 11.858 52.5001 11.375 52.5001Z" fill="#46785C"/>
<path d="M7.875 34.9265C7.392 34.9265 7 34.5345 7 34.0515V29.106C7 25.9578 8.869 23.1193 11.7618 21.8733L13.4627 21.1418C13.7882 21 14 20.6798 14 20.3228C14 19.8398 14.392 19.4478 14.875 19.4478C15.358 19.4478 15.75 19.8398 15.75 20.3228C15.75 21.3798 15.1235 22.33 14.154 22.7483L12.453 23.4798C10.2043 24.4493 8.75 26.656 8.75 29.106V34.0515C8.75 34.5345 8.358 34.9265 7.875 34.9265Z" fill="#46785C"/>
<path d="M17.5003 19.2499C16.3523 19.2499 15.262 18.8859 14.3468 18.1964C13.96 17.9059 13.883 17.3582 14.1735 16.9714C14.464 16.5847 15.0118 16.5042 15.3985 16.7982C16.0075 17.2567 16.7355 17.4999 17.5003 17.4999C19.4305 17.4999 21.0003 15.9302 21.0003 13.9999V12.8642C19.1908 12.9464 17.432 12.3287 16.0775 11.2349C15.6995 10.9304 15.6418 10.3809 15.9428 10.0047C16.2473 9.62844 16.7985 9.56894 17.173 9.87169C17.7785 10.3582 19.1365 11.2384 21.0003 11.1649H21.0073C21.4885 11.1649 21.933 11.3452 22.2603 11.6707C22.5753 11.9857 22.7503 12.4092 22.7503 12.8642V13.9999C22.7503 16.8944 20.3948 19.2499 17.5003 19.2499Z" fill="#46785C"/>
<path d="M35 54.2499C34.517 54.2499 34.125 53.8579 34.125 53.3749V44.4849C34.125 42.7891 33.1292 41.2334 31.5875 40.5194L29.96 39.7669C29.0133 39.3049 28.4375 38.3931 28.4375 37.3799V35.3499C28.4375 34.8669 28.8295 34.4749 29.3125 34.4749C29.7955 34.4749 30.1875 34.8669 30.1875 35.3499V37.3799C30.1875 37.7194 30.3887 38.0291 30.7107 38.1866L32.3207 38.9304C34.4785 39.9279 35.8733 42.1084 35.8733 44.4849V53.3749C35.875 53.8579 35.483 54.2499 35 54.2499Z" fill="#46785C"/>
<path d="M19.25 54.2499C18.767 54.2499 18.375 53.8579 18.375 53.3749V44.4849C18.375 42.1101 19.7697 39.9279 21.9275 38.9304L23.555 38.1779C23.8612 38.0291 24.0625 37.7194 24.0625 37.3799V35.3499C24.0625 34.8669 24.4545 34.4749 24.9375 34.4749C25.4205 34.4749 25.8125 34.8669 25.8125 35.3499V37.3799C25.8125 38.3931 25.235 39.3066 24.3057 39.7581L22.6625 40.5194C21.1207 41.2316 20.125 42.7891 20.125 44.4849V53.3749C20.125 53.8579 19.733 54.2499 19.25 54.2499Z" fill="#46785C"/>
<path d="M27.566 36.722C27.132 36.722 26.7557 36.3983 26.698 35.9573C26.6367 35.4778 26.9763 35.0402 27.4558 34.9773C28.7648 34.8145 29.75 33.6928 29.75 32.375V30.625C29.75 29.9215 29.477 29.267 28.9818 28.784C28.483 28.273 27.8302 28 27.125 28C25.6777 28 24.5 29.1778 24.5 30.625V32.375C24.5 33.0785 24.773 33.733 25.2683 34.216C25.354 34.3035 25.4292 34.3735 25.5097 34.4383C25.8842 34.7445 25.9385 35.2957 25.6323 35.6702C25.3278 36.043 24.7747 36.099 24.4002 35.791C24.2707 35.6842 24.1482 35.574 24.0327 35.4567C23.2102 34.6552 22.75 33.5563 22.75 32.375V30.625C22.75 28.2118 24.7135 26.25 27.125 26.25C28.3063 26.25 29.4052 26.7103 30.2207 27.5468C31.0397 28.3448 31.5 29.4438 31.5 30.625V32.375C31.5 34.573 29.8567 36.4385 27.6762 36.715C27.6395 36.7203 27.6027 36.722 27.566 36.722Z" fill="#46785C"/>
<path d="M22.75 54.25C22.267 54.25 21.875 53.858 21.875 53.375V44.625C21.875 44.142 22.267 43.75 22.75 43.75C23.233 43.75 23.625 44.142 23.625 44.625V53.375C23.625 53.858 23.233 54.25 22.75 54.25Z" fill="#46785C"/>
<path d="M31.5 54.25C31.017 54.25 30.625 53.858 30.625 53.375V44.625C30.625 44.142 31.017 43.75 31.5 43.75C31.983 43.75 32.375 44.142 32.375 44.625V53.375C32.375 53.858 31.983 54.25 31.5 54.25Z" fill="#46785C"/>
<path d="M21 41.125C20.9178 41.125 20.832 41.1128 20.748 41.0883L13.2405 38.8307C12.1467 38.5175 11.375 37.4885 11.375 36.33V28.875C11.375 28.392 11.767 28 12.25 28C12.733 28 13.125 28.392 13.125 28.875V36.33C13.125 36.7115 13.3753 37.0492 13.734 37.1525L21.252 39.4135C21.714 39.5517 21.9765 40.04 21.8383 40.502C21.7245 40.88 21.3763 41.125 21 41.125Z" fill="#46785C"/>
<path d="M19.25 43.75C19.2062 43.75 19.1607 43.7465 19.1152 43.7395L12.1852 42.672C9.23125 42.2275 7 39.6288 7 36.6275V29.75C7 29.267 7.392 28.875 7.875 28.875C8.358 28.875 8.75 29.267 8.75 29.75V36.6275C8.75 38.7713 10.3407 40.6245 12.4495 40.943L19.383 42.0105C19.8607 42.084 20.188 42.532 20.1145 43.008C20.048 43.4403 19.6752 43.75 19.25 43.75Z" fill="#46785C"/>
<path d="M32.3751 40.25C32.0093 40.25 31.6663 40.0173 31.5438 39.6515C31.3916 39.1913 31.6401 38.696 32.0986 38.5437L40.2011 35.8488C41.2738 35.483 42.0001 34.4803 42.0001 33.3568V25.375C42.0001 24.892 42.3921 24.5 42.8751 24.5C43.3581 24.5 43.7501 24.892 43.7501 25.375V33.3568C43.7501 35.2293 42.5478 36.897 40.7611 37.5095L32.6516 40.2063C32.5588 40.236 32.4661 40.25 32.3751 40.25Z" fill="#46785C"/>
<path d="M34.9997 43.75C34.6129 43.75 34.2594 43.4928 34.1562 43.1007C34.0319 42.6335 34.3084 42.154 34.7757 42.0298L42.7032 39.9122C45.3789 39.193 47.2497 36.764 47.2497 34.0025V23.625C47.2497 23.142 47.6417 22.75 48.1247 22.75C48.6077 22.75 48.9997 23.142 48.9997 23.625V34.0025C48.9997 37.5533 46.5952 40.6788 43.1529 41.6045L35.2254 43.722C35.1502 43.7395 35.0732 43.75 34.9997 43.75Z" fill="#46785C"/>
</svg>
