<svg width="57" height="72" viewBox="0 0 57 72" fill="none" xmlns="http://www.w3.org/2000/svg">
<g clip-path="url(#clip0_73_86)">
<path d="M28.6608 71.53C28.0699 71.53 27.5903 71.0505 27.5903 70.4596V14.986C27.5903 14.3951 28.0699 13.9155 28.6608 13.9155C29.2516 13.9155 29.7312 14.3951 29.7312 14.986V70.4596C29.7312 71.0505 29.2516 71.53 28.6608 71.53Z" fill="#9FC899"/>
<path d="M55.7895 57.3918H1.53185C0.940976 57.3918 0.461426 56.9123 0.461426 56.3214V37.3364C0.461426 36.7455 0.940976 36.266 1.53185 36.266H15.3617C15.9526 36.266 16.4321 36.7455 16.4321 37.3364C16.4321 37.9273 15.9526 38.4068 15.3617 38.4068H2.60227V55.251H54.7191V2.14085H2.60227V17.5806C2.60227 18.1715 2.12272 18.6511 1.53185 18.6511C0.940976 18.6511 0.461426 18.1715 0.461426 17.5806V1.07042C0.461426 0.47955 0.940976 0 1.53185 0H55.7895C56.3804 0 56.8599 0.47955 56.8599 1.07042V56.3214C56.8599 56.9123 56.3804 57.3918 55.7895 57.3918Z" fill="#46785C"/>
<path d="M41.4288 28.6188C39.2194 28.6188 37.4297 26.8034 37.4297 24.5598C37.4297 22.3162 39.228 20.5007 41.4288 20.5007C43.6296 20.5007 45.4279 22.3162 45.4279 24.5598C45.4279 26.8034 43.6296 28.6188 41.4288 28.6188ZM41.4288 22.6501C40.4012 22.6501 39.5705 23.5065 39.5705 24.5683C39.5705 25.6302 40.4097 26.4865 41.4288 26.4865C42.4478 26.4865 43.287 25.6302 43.287 24.5683C43.287 23.5065 42.4564 22.6501 41.4288 22.6501Z" fill="#9FC899"/>
</g>
<defs>
<clipPath id="clip0_73_86">
<rect width="56.3985" height="71.53" fill="white" transform="translate(0.461426)"/>
</clipPath>
</defs>
</svg>
