<svg width="19" height="18" viewBox="0 0 19 18" fill="none" xmlns="http://www.w3.org/2000/svg">
<path d="M4.13867 2.19531C4.13842 2.71098 3.93332 3.20543 3.5685 3.56988C3.20369 3.93433 2.70903 4.13893 2.19336 4.13867C1.67769 4.13842 1.18325 3.93332 0.818796 3.5685C0.454344 3.20369 0.249742 2.70903 0.25 2.19336C0.250258 1.67769 0.455354 1.18325 0.820171 0.818796C1.18499 0.454344 1.67964 0.249742 2.19531 0.25C2.71098 0.250258 3.20543 0.455354 3.56988 0.820171C3.93433 1.18499 4.13893 1.67964 4.13867 2.19531ZM4.197 5.57845H0.30833V17.75H4.197V5.57845ZM10.3411 5.57845H6.47188V17.75H10.3022V11.3629C10.3022 7.80472 14.9395 7.47418 14.9395 11.3629V17.75H18.7795V10.0407C18.7795 4.04243 11.916 4.26603 10.3022 7.2117L10.3411 5.57845Z" fill="white"/>
</svg>
