<svg width="27" height="24" viewBox="0 0 27 24" fill="none" xmlns="http://www.w3.org/2000/svg">
<path           class="path"
 d="M5.95645 2.66785C5.95609 3.37506 5.66831 4.05316 5.15641 4.55298C4.64451 5.05279 3.95043 5.33339 3.22686 5.33304C2.50329 5.33268 1.8095 5.05141 1.29811 4.55109C0.786729 4.05077 0.499639 3.37239 0.5 2.66519C0.500362 1.95798 0.788146 1.27988 1.30004 0.780063C1.81194 0.280243 2.50602 -0.000353269 3.22959 3.33797e-07C3.95316 0.000353936 4.64695 0.281629 5.15834 0.781948C5.66973 1.28227 5.95682 1.96065 5.95645 2.66785ZM6.0383 7.30759H0.581847V24H6.0383V7.30759ZM14.6595 7.30759H9.23033V24H14.6049V15.2405C14.6049 10.3608 21.1118 9.90745 21.1118 15.2405V24H26.5V13.4273C26.5 5.20104 16.8694 5.50769 14.6049 9.54747L14.6595 7.30759Z" fill="#46785C"/>
</svg>
