<svg width="56" height="56" viewBox="0 0 56 56" fill="none" xmlns="http://www.w3.org/2000/svg">
<path d="M42.5393 35.3867C42.7388 35.3867 42.94 35.3184 43.1045 35.1784C43.472 34.8652 43.5175 34.3139 43.2043 33.9447L42.7703 33.4354C39.1565 29.8164 33.7788 29.0202 29.3373 31.4002C28.912 31.6277 28.751 32.1597 28.9803 32.5849C29.2078 33.0084 29.738 33.1764 30.165 32.9419C33.9188 30.9294 38.4688 31.6032 41.4858 34.6219L41.8708 35.0804C42.044 35.2817 42.2908 35.3867 42.5393 35.3867Z" fill="#46785C"/>
<path d="M4.33153 30.7876C4.83378 30.1436 6.74128 28.2116 10.2815 30.3309C11.7568 31.2181 12.8225 32.1614 13.7605 32.9926C14.3013 33.4704 14.7738 33.8904 15.2515 34.2334L17.411 34.8896C17.0855 35.4671 16.921 36.0516 16.8423 36.5451L14.6075 35.8661C14.52 35.8381 14.4378 35.7996 14.3625 35.7471C13.764 35.3324 13.1988 34.8319 12.6003 34.3034C11.7183 33.5211 10.7173 32.6339 9.38028 31.8306C7.96453 30.9854 6.79378 30.8909 5.99928 31.5629C5.35703 32.1071 5.22753 32.9174 5.24853 33.0346L12.0998 39.8841L21.3485 43.2091C22.1675 43.5014 23.5885 43.7499 24.453 43.7499H33.203C34.3878 43.7499 35.954 44.3379 36.8465 45.1149L37.0093 45.2566C36.5228 45.6171 36.1763 46.1089 35.954 46.6584L35.6968 46.4344C35.1263 45.9374 33.9608 45.4999 33.203 45.4999H24.453C23.389 45.4999 21.765 45.2181 20.7588 44.8576L11.3245 41.4661C11.2038 41.4224 11.0935 41.3524 11.0025 41.2614L4.01303 34.2736C3.26928 33.5281 3.41278 31.9671 4.33153 30.7876Z" fill="#46785C"/>
<path d="M16.7619 38.5H29.7031C30.1861 38.5 30.5781 38.108 30.5781 37.625C30.5781 37.142 30.1861 36.75 29.7031 36.75H17.6946C17.7664 36.2723 17.9221 35.6878 18.2721 35.1435C19.0771 33.887 20.6469 33.25 22.9341 33.25C22.9359 33.25 22.9394 33.25 22.9411 33.25H29.4721C29.9551 33.25 30.3471 32.858 30.3471 32.375C30.3471 31.892 29.9551 31.5 29.4721 31.5H22.9411H22.9341C20.0116 31.5 17.9466 32.4082 16.7986 34.1985C15.8869 35.6177 15.8869 37.128 15.8869 37.625C15.8869 38.108 16.2789 38.5 16.7619 38.5Z" fill="#46785C"/>
<path d="M39.8372 54.0313C40.1767 54.3708 40.7332 54.3725 41.0745 54.0313C41.4157 53.6883 41.4157 53.1335 41.0745 52.794L36.0327 47.7418L45.9325 37.842L50.9725 42.8925C51.3137 43.2338 51.8685 43.2338 52.2097 42.8925C52.5527 42.553 52.551 41.9965 52.2097 41.6553L46.6325 36.071C46.2912 35.7298 45.6262 35.6703 45.285 36.0133L34.148 47.1503C33.8067 47.4915 33.9152 48.1023 34.2582 48.4435L39.8372 54.0313Z" fill="#46785C"/>
<path d="M22.7031 29.75C30.4224 29.75 36.7031 23.4692 36.7031 15.75C36.7031 8.03075 30.4224 1.75 22.7031 1.75C14.9839 1.75 8.70312 8.03075 8.70312 15.75C8.70312 23.4692 14.9839 29.75 22.7031 29.75ZM22.7031 3.5C29.4564 3.5 34.9531 8.99675 34.9531 15.75C34.9531 22.5033 29.4564 28 22.7031 28C15.9499 28 10.4531 22.5033 10.4531 15.75C10.4531 8.99675 15.9481 3.5 22.7031 3.5Z" fill="#46785C"/>
<path d="M31.8309 25.9386C32.1547 25.9386 32.4627 25.7583 32.6167 25.4503C32.8284 25.0163 32.6517 24.4913 32.2159 24.2778C26.2274 21.3378 19.1049 21.0928 12.9309 23.6093C12.4829 23.7913 12.2677 24.3023 12.4497 24.7486C12.6317 25.1966 13.1462 25.4101 13.5907 25.2281C19.3062 22.9023 25.8984 23.1281 31.4424 25.8476C31.5702 25.9106 31.7014 25.9386 31.8309 25.9386Z" fill="#46785C"/>
<path d="M21.8282 9.62505C24.3359 9.62505 26.8052 9.23305 29.1659 8.46305C29.6244 8.31255 29.8764 7.81905 29.7259 7.3588C29.5754 6.89855 29.0854 6.65005 28.6217 6.7988C23.8564 8.3563 18.5609 8.2128 13.8937 6.39105C13.4457 6.21255 12.9364 6.4383 12.7614 6.88805C12.5864 7.3378 12.8069 7.8453 13.2584 8.0203C15.9885 9.0843 18.8707 9.62505 21.8282 9.62505Z" fill="#46785C"/>
<path d="M22.7049 29.7168C22.8746 29.7168 23.0444 29.6678 23.1914 29.568C27.8166 26.4688 30.5781 21.3028 30.5781 15.75C30.5781 10.192 27.8166 5.026 23.1914 1.932C22.8956 1.73425 22.5124 1.73425 22.2166 1.932C17.5879 5.0295 14.8264 10.1955 14.8264 15.75C14.8264 21.3045 17.5879 26.4705 22.2166 29.568C22.3636 29.6678 22.5351 29.7168 22.7049 29.7168ZM22.7049 3.724C26.5496 6.52575 28.8281 10.976 28.8281 15.75C28.8281 20.5223 26.5496 24.9743 22.7049 27.776C18.8584 24.9725 16.5781 20.5205 16.5781 15.75C16.5781 10.976 18.8566 6.52575 22.7049 3.724Z" fill="#46785C"/>
<path d="M10.3078 16.6968H32.2896C32.7726 16.6968 33.1646 16.3048 33.1646 15.8218C33.1646 15.3388 32.7726 14.9468 32.2896 14.9468H10.3078C9.8248 14.9468 9.4328 15.3388 9.4328 15.8218C9.4328 16.3048 9.82305 16.6968 10.3078 16.6968Z" fill="#46785C"/>
</svg>
