<svg width="79" height="69" viewBox="0 0 79 69" fill="none" xmlns="http://www.w3.org/2000/svg">
<g clip-path="url(#clip0_73_97)">
<path d="M68.0439 34.7326C68.0439 34.9913 67.942 35.2422 67.7538 35.4225L43.4026 59.7737C43.0184 60.1579 42.3991 60.1579 42.0149 59.7737C41.6307 59.3896 41.6307 58.7702 42.0149 58.386L65.6762 34.7247L34.0494 3.09792L2.36769 34.8031L33.9867 66.4221L37.9694 62.4393C38.3536 62.0552 38.9729 62.0552 39.3571 62.4393C39.7413 62.8235 39.7413 63.4429 39.3571 63.827L34.6844 68.4997C34.3003 68.8839 33.6809 68.8839 33.2967 68.4997L0.290074 35.4931C-0.0940891 35.1089 -0.0940891 34.4895 0.290074 34.1054L33.3673 1.02814C33.5476 0.847823 33.7985 0.738059 34.0572 0.738059C34.3159 0.738058 34.5668 0.83998 34.7471 1.02814L67.7538 34.0348C67.9341 34.2151 68.0439 34.466 68.0439 34.7247L68.0439 34.7326Z" fill="#9FC899"/>
<path d="M78.5808 34.7328C78.5808 34.9837 78.4868 35.2346 78.2908 35.4227L45.2214 68.5C44.8372 68.8841 44.2178 68.8841 43.8337 68.5L10.827 35.4933C10.4585 35.1248 10.4585 34.4741 10.827 34.1056L30.3253 14.6074C30.7094 14.2232 31.3288 14.2232 31.7129 14.6074C32.0971 14.9915 32.0971 15.6109 31.7129 15.9951L12.9046 34.8034L44.5236 66.4223L76.2131 34.7328L44.5863 3.106L40.5722 7.12011C40.1881 7.50427 39.5687 7.50428 39.1845 7.12011C38.8004 6.73595 38.8004 6.11659 39.1845 5.73242L43.8886 1.02839C44.0689 0.848067 44.3198 0.738303 44.5785 0.738303C44.8372 0.738303 45.0881 0.840224 45.2684 1.02839L78.2751 34.035C78.4632 34.2232 78.5652 34.4741 78.5652 34.725L78.5808 34.7328Z" fill="#46785C"/>
<path d="M42.8145 34.772C42.8145 35.6736 42.4695 36.5753 41.7796 37.2652C40.4076 38.6372 38.1653 38.6372 36.7933 37.2652C35.4213 35.8932 35.4213 33.6509 36.7933 32.2789C38.1653 30.9069 40.4076 30.9069 41.7796 32.2789C42.4695 32.9688 42.8145 33.8704 42.8145 34.772ZM37.7184 34.772C37.7184 35.1719 37.8674 35.5717 38.1731 35.8775C38.7847 36.489 39.7804 36.489 40.3919 35.8775C41.0034 35.266 41.0034 34.2703 40.3919 33.6588C39.7804 33.0472 38.7847 33.0472 38.1731 33.6588C37.8674 33.9645 37.7184 34.3644 37.7184 34.772Z" fill="#46785C"/>
</g>
<defs>
<clipPath id="clip0_73_97">
<rect width="68.0439" height="78.581" fill="white" transform="translate(0 68.79) rotate(-90)"/>
</clipPath>
</defs>
</svg>
