<svg width="82" height="49" viewBox="0 0 82 49" fill="none" xmlns="http://www.w3.org/2000/svg">
<g clip-path="url(#clip0_73_116)">
<path d="M45.9643 24.7908C45.7415 24.7908 45.5276 24.7285 45.3316 24.5948L31.6795 15.1756L22.4474 23.6858C21.993 24.1047 21.289 24.0779 20.8702 23.6235C20.4513 23.169 20.4781 22.465 20.9325 22.0462L30.8151 12.9388C31.1983 12.5824 31.7775 12.5467 32.2053 12.8408L46.5881 22.768C47.096 23.1155 47.2208 23.8106 46.8732 24.3185C46.6594 24.6304 46.3118 24.7997 45.9554 24.7997L45.9643 24.7908Z" fill="#9FC899"/>
<path d="M73.5625 48.3699H8.27858C7.6637 48.3699 7.16467 47.8708 7.16467 47.256C7.16467 46.6411 7.6637 46.1421 8.27858 46.1421H72.609L79.2568 4.16107L25.1387 38.0239C24.6218 38.3536 23.9268 38.1932 23.606 37.6674C23.2762 37.1506 23.4366 36.4555 23.9624 36.1347L80.148 0.979743C80.5222 0.74805 80.9945 0.756962 81.351 0.997566C81.7163 1.23817 81.9035 1.66591 81.8411 2.10256L74.6586 47.4342C74.5695 47.9778 74.1061 48.3699 73.5625 48.3699Z" fill="#46785C"/>
<path d="M8.29644 48.3698C7.77959 48.3698 7.30729 48.0044 7.20927 47.4697L0.0178713 11.3613C-0.0712413 10.9335 0.106984 10.4969 0.454523 10.2385C0.810974 9.98003 1.27436 9.9533 1.65754 10.1761L35.6362 29.5135C36.1709 29.8165 36.358 30.4938 36.055 31.0284C35.7521 31.5631 35.0659 31.7503 34.5401 31.4473L2.68234 13.3128L9.38361 47.042C9.49946 47.648 9.11628 48.2361 8.51031 48.3519C8.43902 48.3698 8.35882 48.3698 8.28753 48.3698H8.29644Z" fill="#46785C"/>
<path d="M18.8028 43.941C17.1275 43.941 15.764 42.4974 15.764 40.7151C15.764 38.9329 17.1275 37.4893 18.8028 37.4893C20.4781 37.4893 21.8504 38.9329 21.8504 40.7151C21.8504 42.4974 20.487 43.941 18.8028 43.941ZM18.8028 39.7171C18.3572 39.7171 17.9919 40.1626 17.9919 40.7151C17.9919 41.2676 18.3572 41.7132 18.8028 41.7132C19.2483 41.7132 19.6226 41.2676 19.6226 40.7151C19.6226 40.1626 19.2573 39.7171 18.8028 39.7171Z" fill="#9FC899"/>
</g>
<defs>
<clipPath id="clip0_73_116">
<rect width="81.85" height="47.5594" fill="white" transform="translate(0 0.810547)"/>
</clipPath>
</defs>
</svg>
