<svg width="50" height="50" viewBox="0 0 50 50" fill="none" xmlns="http://www.w3.org/2000/svg">
<g clip-path="url(#clip0_53_1848)">
<path d="M25 18.75V45.8333" stroke="#46785C" stroke-width="2" stroke-linecap="round" stroke-linejoin="round"/>
<path d="M39.5833 35.7708L27.1249 45.1146C26.5119 45.5744 25.7662 45.8229 24.9999 45.8229C24.2336 45.8229 23.488 45.5744 22.8749 45.1146L10.4166 35.7708C9.76973 35.2857 9.24471 34.6566 8.88311 33.9334C8.52151 33.2102 8.33325 32.4127 8.33325 31.6042V8.33333C8.33325 7.7808 8.55275 7.25089 8.94345 6.86019C9.33415 6.46949 9.86405 6.25 10.4166 6.25H39.5833C40.1358 6.25 40.6657 6.46949 41.0564 6.86019C41.4471 7.25089 41.6666 7.7808 41.6666 8.33333V31.6042C41.6666 32.4127 41.4783 33.2102 41.1167 33.9334C40.7551 34.6566 40.2301 35.2857 39.5833 35.7708Z" stroke="#46785C" stroke-width="2" stroke-linecap="round" stroke-linejoin="round"/>
<path d="M8.95825 6.875L22.8228 17.6792C23.445 18.164 24.2112 18.4273 24.9999 18.4273C25.7887 18.4273 26.5549 18.164 27.177 17.6792L41.0416 6.875" stroke="#46785C" stroke-width="2" stroke-linecap="round" stroke-linejoin="round"/>
</g>
<defs>
<clipPath id="clip0_53_1848">
<rect width="50" height="50" fill="white"/>
</clipPath>
</defs>
</svg>
